<svg width="64" height="64" viewBox="0 0 64 64" fill="none" xmlns="http://www.w3.org/2000/svg">
<g clip-path="url(#clip0_2803_75)">
<rect width="64" height="64" rx="16" fill="#242424"/>
<rect x="5.08982" y="17.4854" width="45.5825" height="63.9997" rx="3.45322" transform="rotate(-15 5.08982 17.4854)" fill="#F7F7F7"/>
<rect x="5.08982" y="17.4854" width="45.5825" height="63.9997" rx="3.45322" transform="rotate(-15 5.08982 17.4854)" fill="url(#paint0_linear_2803_75)"/>
<rect x="5.08982" y="17.4854" width="45.5825" height="63.9997" rx="3.45322" transform="rotate(-15 5.08982 17.4854)" stroke="#CCCCCC" stroke-width="0.46043"/>
<g style="mix-blend-mode:multiply">
<path d="M27.8513 17.5043C28.0147 16.7862 28.9157 16.5448 29.4162 17.085L32.5421 20.4587C32.7352 20.667 33.0139 20.774 33.2967 20.7483L37.8772 20.3328C38.6106 20.2663 39.1187 21.0486 38.7596 21.6916L36.5169 25.707C36.3784 25.9549 36.3628 26.2531 36.4746 26.5142L38.2853 30.742C38.5752 31.419 37.9881 32.1439 37.2657 32.0011L32.7538 31.1091C32.4751 31.054 32.1868 31.1313 31.973 31.3183L28.5116 34.3468C27.9573 34.8317 27.0865 34.4974 26.9991 33.7662L26.4532 29.1994C26.4195 28.9174 26.2569 28.667 26.013 28.5215L22.0631 26.1654C21.4306 25.7881 21.4794 24.8566 22.1479 24.5475L26.3224 22.6171C26.5802 22.4979 26.7681 22.2659 26.8311 21.989L27.8513 17.5043Z" fill="#4DA92C"/>
<path d="M36.5991 59.3293L34.6466 58.7943L37.4277 38.2164L39.3654 38.8236L36.5991 59.3293ZM40.0918 60.1344C38.5843 60.5383 37.24 60.6595 36.0589 60.4981C34.8778 60.3367 33.8423 59.9542 32.9523 59.3507C32.0624 58.7471 31.311 57.9813 30.6982 57.0531C30.0797 56.1038 29.5822 55.0537 29.2056 53.903C29.0307 53.3354 28.8417 52.7147 28.6384 52.041C28.4506 51.3403 28.2629 50.6396 28.0751 49.939C27.9086 49.2326 27.7563 48.5793 27.6183 47.9791C27.3478 46.8 27.2565 45.6524 27.3444 44.5366C27.4266 43.3994 27.705 42.3577 28.1796 41.4112C28.6755 40.4591 29.3945 39.6179 30.3366 38.8875C31.2788 38.1572 32.4824 37.5957 33.9474 37.2032C35.4337 36.8049 36.7674 36.6865 37.9485 36.848C39.1296 37.0094 40.1623 37.3812 41.0465 37.9636C41.952 38.5402 42.714 39.3032 43.3325 40.2525C43.9666 41.175 44.4613 42.2144 44.8166 43.3708C45.0184 43.954 45.2132 44.5959 45.4009 45.2965C45.5886 45.9972 45.7764 46.6979 45.9641 47.3986C46.1462 48.078 46.2928 48.7101 46.4039 49.2947C46.6744 50.4739 46.7791 51.6292 46.7182 52.7606C46.6515 53.8708 46.3838 54.9097 45.9148 55.8774C45.4459 56.845 44.7297 57.6969 43.7663 58.4329C42.8242 59.1633 41.5993 59.7304 40.0918 60.1344ZM39.1104 56.4717C40.4905 56.1019 41.3796 55.3858 41.7776 54.3234C42.1912 53.234 42.201 51.9115 41.8069 50.3558C41.6844 49.7287 41.5406 49.1073 41.3756 48.4915C41.2049 47.8545 41.0343 47.2176 40.8636 46.5806C40.6929 45.9436 40.5095 45.3442 40.3135 44.7823C39.8883 43.2804 39.2243 42.1612 38.3214 41.4246C37.4341 40.661 36.3004 40.4642 34.9203 40.834C33.5614 41.1981 32.678 41.9354 32.2702 43.046C31.8778 44.1297 31.8624 45.431 32.2239 46.9499C32.3775 47.5232 32.529 48.1311 32.6784 48.7738C32.8491 49.4108 33.0198 50.0477 33.1905 50.6847C33.3767 51.2948 33.5523 51.9077 33.7173 52.5234C34.1751 54.062 34.8554 55.1996 35.7582 55.9363C36.6554 56.6517 37.7728 56.8302 39.1104 56.4717Z" fill="#4DA92C"/>
</g>
<path d="M27.3801 36.7868C26.2536 35.4677 25.1839 35.8585 25.063 37.5712C25.0572 37.6422 25.0522 37.8269 25.0587 38.073C24.6887 38.0235 24.2881 38.0267 23.8794 38.0916C23.6355 37.4035 23.3347 36.7802 23.0964 36.3534C22.3337 34.9864 20.309 32.8671 18.8348 34.8185C18.334 35.4831 18.2491 36.5716 18.5674 37.4083C18.5403 37.4552 18.5167 37.4962 18.493 37.5373C18.0705 38.2354 17.6295 38.8641 16.7059 38.7646C16.165 38.7063 15.4698 38.5159 15.2325 37.945C14.9323 37.2868 15.059 36.7423 15.6091 36.3173C15.8858 36.4068 16.1625 36.4962 16.4392 36.5857C16.5629 36.8995 17.0773 36.7666 16.9477 36.4494C16.4868 35.2841 15.331 35.5938 14.7438 36.5095C13.9733 37.7024 15.2143 39.1345 16.4077 39.2609C17.842 39.4169 18.2913 38.7265 18.8147 37.8873C19.1684 38.4121 19.746 38.7183 20.5311 38.5229C21.8735 38.1879 21.675 35.8569 20.2677 35.7829C19.704 35.7505 19.2422 36.3204 18.9019 36.8626C18.7846 36.5173 18.7702 36.1494 18.9091 35.7801C19.6774 33.765 21.5654 34.8007 22.3469 36.1081C22.752 36.7877 23.0865 37.4812 23.3288 38.2193C22.439 38.4677 21.6256 38.983 21.2717 39.752C20.5851 41.2396 21.7668 43.0792 23.4072 42.0994C24.5095 41.4422 24.4429 39.973 24.0496 38.6161C24.3714 38.5596 24.7494 38.5277 25.08 38.5779C25.1325 39.6246 25.3375 41.0369 26.0194 40.6411C26.9575 40.0923 26.4231 38.56 25.5754 38.2072C25.5732 37.7369 25.5796 37.2246 25.7604 36.7895C26.0727 36.0317 26.7036 36.8144 27.0186 37.1761C27.2329 37.4211 27.6027 37.0444 27.3801 36.7868ZM19.1483 37.3567C19.3046 37.1265 19.4819 36.9005 19.7012 36.6832C20.2127 36.1694 21.1001 36.6702 20.8518 37.3712C20.6788 38.057 20.2056 38.159 19.4268 37.6935C19.324 37.5872 19.2338 37.4726 19.1483 37.3567ZM23.4769 38.7348C23.4979 38.8134 23.5178 38.8874 23.5388 38.9661C23.7211 39.7202 23.9822 40.8796 23.2889 41.4917C22.4127 42.2717 21.232 41.4529 21.5996 40.3284C21.869 39.5027 22.661 38.9633 23.4769 38.7348ZM25.8419 40.0343C25.8341 39.9868 25.7866 39.9202 25.7466 39.7525C25.6691 39.4263 25.6193 39.0926 25.5939 38.7574C25.6868 38.8267 25.7683 38.909 25.8224 39.0184C25.934 39.2314 25.9868 39.7427 25.8419 40.0343Z" fill="#AADB5C"/>
<path d="M39.754 33.835C39.8413 33.3655 40.001 32.371 40.6504 32.8711C41.0257 33.1621 41.2874 33.6026 41.5195 34.0063C40.9617 34.7357 41.2637 36.3253 42.3519 36.3361C43.1415 36.3426 42.6116 35.0124 42.1338 34.0797C42.395 33.8709 42.7395 33.7141 43.0452 33.5975C43.383 34.9693 44.06 36.275 45.3433 36.2929C47.2584 36.3201 47.3561 34.1327 46.0189 33.1923C45.3279 32.7033 44.3659 32.6637 43.471 32.8935C43.3119 32.1332 43.2502 31.3665 43.2658 30.5742C43.2901 29.0558 44.4073 27.2149 46.079 28.5712C46.3827 28.817 46.5555 29.1474 46.6266 29.5051C46.0561 29.2069 45.3771 28.9477 44.9039 29.2529C43.7221 30.0207 44.7111 32.1399 46.0457 31.7575C46.8234 31.5343 47.1705 30.9803 47.2144 30.3489C48.0919 30.8127 48.8216 31.1872 49.9857 30.335C50.956 29.6289 51.3147 27.7681 50.051 27.1203C49.0846 26.6208 47.9288 26.9306 48.1123 28.1702C48.1633 28.5085 48.6706 28.3676 48.6208 28.0339C48.8157 27.8181 49.0106 27.6023 49.2056 27.3865C49.8945 27.4795 50.2752 27.8831 50.3455 28.6078C50.4209 29.2221 49.9152 29.7392 49.4794 30.0543C48.7293 30.6023 48.0329 30.2783 47.318 29.8849C47.277 29.8612 47.2359 29.8375 47.189 29.8104C47.0418 28.9279 46.4239 28.0277 45.6626 27.7014C43.4102 26.7484 42.7176 29.6008 42.7393 31.1614C42.7464 31.6502 42.7976 32.3404 42.9304 33.0582C42.5498 33.2098 42.1955 33.4038 41.8998 33.6318C41.7777 33.4166 41.681 33.2592 41.6452 33.1994C40.6841 31.7765 39.5623 31.973 39.2463 33.6786C39.186 34.0268 39.6946 34.1681 39.754 33.835ZM46.5853 30.4977C46.1447 31.2948 45.6827 31.4384 45.19 30.931C44.6245 30.448 45.138 29.5719 45.8425 29.7598C46.1364 29.8397 46.4088 29.9501 46.6581 30.0667C46.6478 30.2132 46.6224 30.3588 46.5853 30.4977ZM46.0268 33.8693C46.9075 34.6594 46.2944 35.9588 45.1455 35.7214C44.2391 35.5379 43.8843 34.3988 43.6663 33.6591C43.6452 33.5805 43.6254 33.5065 43.6043 33.4279C44.4205 33.2191 45.3808 33.2889 46.0268 33.8693ZM41.7102 34.8475C41.7023 34.7257 41.7318 34.6137 41.7776 34.5072C41.9232 34.8102 42.0469 35.124 42.1429 35.4453C42.1921 35.6106 42.1888 35.6908 42.2012 35.737C41.93 35.5569 41.7247 35.0865 41.7102 34.8475Z" fill="#AADB5C"/>
<path d="M48.1387 62.3754C49.2652 63.6945 50.3349 63.3037 50.4558 61.591C50.4616 61.52 50.4666 61.3353 50.4601 61.0892C50.8301 61.1387 51.2307 61.1355 51.6394 61.0706C51.8833 61.7587 52.1841 62.382 52.4224 62.8088C53.1851 64.1758 55.2098 66.2951 56.684 64.3437C57.1848 63.6791 57.2697 62.5906 56.9514 61.7539C56.9785 61.707 57.0021 61.666 57.0258 61.6249C57.4483 60.9268 57.8893 60.2981 58.8129 60.3976C59.3538 60.4559 60.049 60.6463 60.2863 61.2172C60.5865 61.8754 60.4598 62.4199 59.9097 62.8449C59.633 62.7554 59.3563 62.666 59.0796 62.5765C58.9559 62.2627 58.4415 62.3956 58.5711 62.7128C59.032 63.8781 60.1878 63.5684 60.775 62.6527C61.5455 61.4598 60.3045 60.0277 59.1111 59.9013C57.6768 59.7453 57.2275 60.4357 56.7041 61.2749C56.3504 60.7501 55.7728 60.4439 54.9877 60.6393C53.6453 60.9743 53.8438 63.3053 55.2511 63.3793C55.8148 63.4117 56.2766 62.8418 56.6169 62.2996C56.7342 62.6449 56.7486 63.0128 56.6097 63.3821C55.8414 65.3972 53.9534 64.3615 53.1719 63.0541C52.7668 62.3745 52.4323 61.681 52.19 60.9429C53.0798 60.6945 53.8932 60.1792 54.2471 59.4102C54.9337 57.9226 53.752 56.083 52.1116 57.0628C51.0093 57.72 51.0759 59.1892 51.4692 60.5461C51.1474 60.6026 50.7694 60.6345 50.4388 60.5843C50.3863 59.5376 50.1813 58.1253 49.4994 58.5211C48.5613 59.0699 49.0957 60.6022 49.9434 60.955C49.9456 61.4253 49.9391 61.9376 49.7584 62.3727C49.4461 63.1305 48.8152 62.3478 48.5002 61.9861C48.2859 61.7411 47.9161 62.1178 48.1387 62.3754ZM56.3705 61.8055C56.2142 62.0357 56.0369 62.2617 55.8176 62.479C55.3061 62.9928 54.4187 62.492 54.667 61.791C54.84 61.1052 55.3132 61.0032 56.092 61.4687C56.1948 61.575 56.285 61.6896 56.3705 61.8055ZM52.0419 60.4274C52.0209 60.3488 52.001 60.2748 51.98 60.1961C51.7977 59.442 51.5366 58.2826 52.2299 57.6706C53.1061 56.8905 54.2868 57.7093 53.9192 58.8339C53.6498 59.6595 52.8578 60.1989 52.0419 60.4274ZM49.6769 59.1279C49.6847 59.1754 49.7322 59.242 49.7722 59.4097C49.8497 59.7359 49.8995 60.0696 49.9249 60.4048C49.832 60.3355 49.7505 60.2532 49.6964 60.1438C49.5848 59.9308 49.532 59.4195 49.6769 59.1279Z" fill="#AADB5C"/>
<path d="M35.7648 65.3272C35.6775 65.7967 35.5178 66.7912 34.8684 66.2911C34.4931 66.0001 34.2314 65.5596 33.9993 65.1559C34.5571 64.4265 34.2551 62.8369 33.1669 62.8261C32.3773 62.8196 32.9072 64.1498 33.385 65.0825C33.1238 65.2913 32.7793 65.4481 32.4736 65.5647C32.1358 64.1929 31.4588 62.8872 30.1755 62.8693C28.2604 62.8421 28.1627 65.0295 29.4999 65.9699C30.1909 66.4589 31.1529 66.4985 32.0477 66.2687C32.2069 67.029 32.2686 67.7957 32.253 68.588C32.2287 70.1064 31.1115 71.9473 29.4398 70.591C29.1361 70.3452 28.9633 70.0148 28.8922 69.6571C29.4627 69.9553 30.1417 70.2145 30.6149 69.9093C31.7967 69.1415 30.8077 67.0223 29.4731 67.4047C28.6954 67.6279 28.3483 68.1819 28.3044 68.8133C27.4269 68.3495 26.6972 67.975 25.5331 68.8272C24.5628 69.5333 24.2041 71.3941 25.4678 72.0419C26.4342 72.5414 27.59 72.2316 27.4065 70.992C27.3555 70.6537 26.8482 70.7946 26.898 71.1283C26.703 71.3441 26.5081 71.5599 26.3132 71.7757C25.6243 71.6827 25.2436 71.2791 25.1733 70.5544C25.0979 69.9401 25.6036 69.423 26.0394 69.1079C26.7895 68.5599 27.4859 68.8839 28.2008 69.2773C28.2418 69.301 28.2829 69.3247 28.3298 69.3518C28.477 70.2343 29.0949 71.1345 29.8562 71.4608C32.1086 72.4138 32.8012 69.5614 32.7795 68.0008C32.7724 67.512 32.7212 66.8218 32.5884 66.104C32.969 65.9524 33.3233 65.7584 33.619 65.5304C33.7411 65.7456 33.8378 65.903 33.8736 65.9628C34.8347 67.3857 35.9564 67.1892 36.2725 65.4836C36.3328 65.1354 35.8242 64.9941 35.7648 65.3272ZM28.9335 68.6645C29.3741 67.8674 29.8361 67.7238 30.3288 68.2312C30.8943 68.7142 30.3808 69.5903 29.6763 69.4024C29.3824 69.3225 29.11 69.2121 28.8607 69.0955C28.871 68.949 28.8964 68.8034 28.9335 68.6645ZM29.492 65.2929C28.6113 64.5028 29.2244 63.2034 30.3733 63.4408C31.2797 63.6243 31.6345 64.7634 31.8525 65.5031C31.8736 65.5817 31.8934 65.6557 31.9145 65.7343C31.0983 65.9431 30.138 65.8733 29.492 65.2929ZM33.8086 64.3147C33.8165 64.4365 33.787 64.5485 33.7412 64.655C33.5956 64.352 33.4719 64.0382 33.3759 63.7169C33.3267 63.5516 33.33 63.4714 33.3176 63.4252C33.5888 63.6053 33.7941 64.0757 33.8086 64.3147Z" fill="#AADB5C"/>
</g>
<defs>
<linearGradient id="paint0_linear_2803_75" x1="27.8293" y1="81.7827" x2="27.8293" y2="17.3226" gradientUnits="userSpaceOnUse">
<stop stop-color="#DEDEDE"/>
<stop offset="1" stop-color="#DEDEDE" stop-opacity="0"/>
</linearGradient>
<clipPath id="clip0_2803_75">
<rect width="64" height="64" rx="16" fill="white"/>
</clipPath>
</defs>
</svg>
