<svg width="349" height="284" viewBox="0 0 349 284" fill="none" xmlns="http://www.w3.org/2000/svg">
<path d="M273.085 244.363C272.59 244.363 272.096 244.575 271.743 244.928L260.126 256.55H236.768C236.256 256.55 235.779 256.744 235.426 257.098C235.091 257.433 233.449 259.217 233.449 262.079C233.449 265.028 235.214 266.865 235.426 267.06C235.797 267.413 236.274 267.607 236.768 267.607H276.439L289.133 280.307C289.486 280.66 289.963 280.872 290.475 280.872C290.722 280.872 292.929 280.837 294.73 279.035C296.478 277.287 296.566 275.202 296.566 274.796C296.566 274.266 296.354 273.789 296.001 273.436L290.193 267.625H301.739L302.41 268.296C300.68 271.281 301.527 275.273 304.529 278.293C307.283 281.049 312.738 283.274 317.47 282.02C318.141 281.844 318.653 281.314 318.829 280.66C319.077 279.759 319.2 278.788 319.2 277.799C319.2 273.648 317.152 269.745 315.122 267.713C312.067 264.658 308.183 263.845 305.129 265.594L305.058 265.523C305.217 265.205 305.358 264.887 305.482 264.569H319.094C318.317 266.936 318.723 269.621 320.206 271.67C322.166 274.372 325.556 275.52 328.734 274.62C330.764 277.216 334.189 278.276 337.367 277.234C340.528 276.209 342.682 273.33 342.805 270.045C345.912 268.914 347.96 265.982 347.96 262.644C347.96 259.306 345.895 256.374 342.805 255.243C342.682 251.922 340.528 249.079 337.367 248.054C334.207 247.03 330.764 248.072 328.734 250.668C325.556 249.768 322.166 250.933 320.206 253.618C319.218 254.978 318.706 256.586 318.706 258.246C318.706 259.094 318.829 259.924 319.094 260.719H307.53C308.219 260.365 308.889 259.871 309.507 259.253C310.885 257.875 312.297 255.208 312.297 252.364C312.297 251.675 312.209 251.004 312.05 250.386C311.873 249.715 311.361 249.202 310.69 249.026C307.442 248.16 303.699 249.679 301.827 251.552C300.362 253.018 299.585 254.837 299.709 256.55H273.879L278.628 251.799C278.982 251.446 279.193 250.969 279.193 250.456C279.193 250.033 279.105 247.948 277.357 246.2C275.539 244.38 273.332 244.363 273.085 244.363ZM307.707 275.98C307.548 275.838 307.389 275.697 307.248 275.573C305.2 273.524 304.723 271.087 306.312 269.48C307 268.791 307.795 268.473 308.678 268.508C307.671 270.804 307.318 273.454 307.707 275.98ZM312.403 270.416C313.992 272.005 315.598 275.397 315.334 278.488C314.433 278.558 313.48 278.488 312.473 278.258C311.185 275.821 311.061 272.73 312.173 270.168C312.244 270.257 312.332 270.327 312.403 270.416ZM323.331 269.374C322.166 267.766 322.396 265.364 323.861 264.039C324.62 263.333 324.673 262.061 323.985 261.319L323.861 261.125L323.808 261.143C322.378 259.712 322.219 257.433 323.349 255.879C324.55 254.219 326.81 253.724 328.593 254.731C329.052 254.996 329.617 255.049 330.129 254.89C330.641 254.731 331.064 254.342 331.276 253.865C332.124 251.993 334.242 251.075 336.184 251.711C338.109 252.329 339.292 254.36 338.886 256.356C338.78 256.903 338.903 257.433 339.221 257.875C339.539 258.317 340.033 258.599 340.563 258.652C342.593 258.882 344.129 260.613 344.129 262.662C344.129 264.711 342.593 266.442 340.563 266.671C340.033 266.724 339.539 267.024 339.221 267.448C338.903 267.89 338.78 268.42 338.886 268.967C339.292 270.963 338.109 272.977 336.184 273.613C334.225 274.249 332.124 273.312 331.276 271.458C331.047 270.963 330.623 270.592 330.129 270.433C329.617 270.274 329.052 270.327 328.593 270.592C326.792 271.528 324.532 271.034 323.331 269.374ZM280.641 263.774H237.757C237.527 263.368 237.315 262.803 237.315 262.079C237.315 261.372 237.545 260.789 237.757 260.383H260.938C261.45 260.383 261.944 260.171 262.297 259.818L273.773 248.337C274.038 248.443 274.356 248.602 274.656 248.902C274.939 249.185 275.115 249.503 275.221 249.785L267.912 257.098C267.541 257.469 267.347 257.946 267.347 258.458C267.347 258.705 267.4 258.952 267.488 259.2C267.788 259.924 268.477 260.383 269.271 260.383H301.669C301.898 260.789 302.11 261.355 302.11 262.061C302.11 262.768 301.88 263.35 301.669 263.757H285.602C284.825 263.757 284.119 264.216 283.819 264.94C283.519 265.647 283.695 266.495 284.243 267.042L292.629 275.432C292.523 275.697 292.364 276.015 292.064 276.315C291.764 276.615 291.464 276.774 291.199 276.88L281.665 267.342C282.23 267.007 282.601 266.389 282.601 265.7C282.548 264.64 281.7 263.774 280.641 263.774ZM303.964 257.115C303.681 256.833 303.54 256.533 303.54 256.179C303.54 255.314 304.37 254.431 304.546 254.272C305.447 253.371 307.053 252.7 308.448 252.629C308.377 254.024 307.707 255.632 306.806 256.533C306.382 256.921 305.005 258.14 303.964 257.115Z" fill="#E5E5E5"/>
<path d="M328.646 266.601C329.705 267.66 331.135 268.261 332.636 268.261C334.137 268.261 335.567 267.678 336.626 266.601C337.685 265.541 338.286 264.11 338.286 262.609C338.286 261.09 337.703 259.677 336.626 258.617C335.567 257.557 334.137 256.956 332.636 256.956C331.135 256.956 329.705 257.539 328.646 258.617C327.587 259.677 326.986 261.107 326.986 262.609C326.986 264.128 327.569 265.541 328.646 266.601ZM330.835 262.609C330.835 262.132 331.029 261.673 331.365 261.337C331.7 261.001 332.159 260.807 332.636 260.807C333.113 260.807 333.572 261.001 333.907 261.337C334.243 261.673 334.437 262.132 334.437 262.609C334.437 263.086 334.243 263.545 333.907 263.88C333.572 264.216 333.113 264.41 332.636 264.41C331.647 264.41 330.835 263.598 330.835 262.609Z" fill="#E5E5E5"/>
<path d="M273.085 244.363C272.59 244.363 272.096 244.575 271.743 244.928L260.126 256.55H236.768C236.256 256.55 235.779 256.744 235.426 257.098C235.091 257.433 233.449 259.217 233.449 262.079C233.449 265.028 235.214 266.865 235.426 267.06C235.797 267.413 236.274 267.607 236.768 267.607H276.439L289.133 280.307C289.486 280.66 289.963 280.872 290.475 280.872C290.722 280.872 292.929 280.837 294.73 279.035C296.478 277.287 296.566 275.202 296.566 274.796C296.566 274.266 296.354 273.789 296.001 273.436L290.193 267.625H301.739L302.41 268.296C300.68 271.281 301.527 275.273 304.529 278.293C307.283 281.049 312.738 283.274 317.47 282.02C318.141 281.844 318.653 281.314 318.829 280.66C319.077 279.759 319.2 278.788 319.2 277.799C319.2 273.648 317.152 269.745 315.122 267.713C312.067 264.658 308.183 263.845 305.129 265.594L305.058 265.523C305.217 265.205 305.358 264.887 305.482 264.569H319.094C318.317 266.936 318.723 269.621 320.206 271.67C322.166 274.372 325.556 275.52 328.734 274.62C330.764 277.216 334.189 278.276 337.367 277.234C340.528 276.209 342.682 273.33 342.805 270.045C345.912 268.914 347.96 265.982 347.96 262.644C347.96 259.306 345.895 256.374 342.805 255.243C342.682 251.922 340.528 249.079 337.367 248.054C334.207 247.03 330.764 248.072 328.734 250.668C325.556 249.768 322.166 250.933 320.206 253.618C319.218 254.978 318.706 256.586 318.706 258.246C318.706 259.094 318.829 259.924 319.094 260.719H307.53C308.219 260.365 308.889 259.871 309.507 259.253C310.885 257.875 312.297 255.208 312.297 252.364C312.297 251.675 312.209 251.004 312.05 250.386C311.873 249.715 311.361 249.202 310.69 249.026C307.442 248.16 303.699 249.679 301.827 251.552C300.362 253.018 299.585 254.837 299.709 256.55H273.879L278.628 251.799C278.982 251.446 279.193 250.969 279.193 250.456C279.193 250.033 279.105 247.948 277.357 246.2C275.539 244.38 273.332 244.363 273.085 244.363ZM307.707 275.98C307.548 275.838 307.389 275.697 307.248 275.573C305.2 273.524 304.723 271.087 306.312 269.48C307 268.791 307.795 268.473 308.678 268.508C307.671 270.804 307.318 273.454 307.707 275.98ZM312.403 270.416C313.992 272.005 315.598 275.397 315.334 278.488C314.433 278.558 313.48 278.488 312.473 278.258C311.185 275.821 311.061 272.73 312.173 270.168C312.244 270.257 312.332 270.327 312.403 270.416ZM323.331 269.374C322.166 267.766 322.396 265.364 323.861 264.039C324.62 263.333 324.673 262.061 323.985 261.319L323.861 261.125L323.808 261.143C322.378 259.712 322.219 257.433 323.349 255.879C324.55 254.219 326.81 253.724 328.593 254.731C329.052 254.996 329.617 255.049 330.129 254.89C330.641 254.731 331.064 254.342 331.276 253.865C332.124 251.993 334.242 251.075 336.184 251.711C338.109 252.329 339.292 254.36 338.886 256.356C338.78 256.903 338.903 257.433 339.221 257.875C339.539 258.317 340.033 258.599 340.563 258.652C342.593 258.882 344.129 260.613 344.129 262.662C344.129 264.711 342.593 266.442 340.563 266.671C340.033 266.724 339.539 267.024 339.221 267.448C338.903 267.89 338.78 268.42 338.886 268.967C339.292 270.963 338.109 272.977 336.184 273.613C334.225 274.249 332.124 273.312 331.276 271.458C331.047 270.963 330.623 270.592 330.129 270.433C329.617 270.274 329.052 270.327 328.593 270.592C326.792 271.528 324.532 271.034 323.331 269.374ZM280.641 263.774H237.757C237.527 263.368 237.315 262.803 237.315 262.079C237.315 261.372 237.545 260.789 237.757 260.383H260.938C261.45 260.383 261.944 260.171 262.297 259.818L273.773 248.337C274.038 248.443 274.356 248.602 274.656 248.902C274.939 249.185 275.115 249.503 275.221 249.785L267.912 257.098C267.541 257.469 267.347 257.946 267.347 258.458C267.347 258.705 267.4 258.952 267.488 259.2C267.788 259.924 268.477 260.383 269.271 260.383H301.669C301.898 260.789 302.11 261.355 302.11 262.061C302.11 262.768 301.88 263.35 301.669 263.757H285.602C284.825 263.757 284.119 264.216 283.819 264.94C283.519 265.647 283.695 266.495 284.243 267.042L292.629 275.432C292.523 275.697 292.364 276.015 292.064 276.315C291.764 276.615 291.464 276.774 291.199 276.88L281.665 267.342C282.23 267.007 282.601 266.389 282.601 265.7C282.548 264.64 281.7 263.774 280.641 263.774ZM303.964 257.115C303.681 256.833 303.54 256.533 303.54 256.179C303.54 255.314 304.37 254.431 304.546 254.272C305.447 253.371 307.053 252.7 308.448 252.629C308.377 254.024 307.707 255.632 306.806 256.533C306.382 256.921 305.005 258.14 303.964 257.115Z" stroke="black" stroke-width="1.60734" stroke-miterlimit="10"/>
<path d="M328.646 266.601C329.705 267.66 331.135 268.261 332.636 268.261C334.137 268.261 335.567 267.678 336.626 266.601C337.685 265.541 338.286 264.11 338.286 262.609C338.286 261.09 337.703 259.677 336.626 258.617C335.567 257.557 334.137 256.956 332.636 256.956C331.135 256.956 329.705 257.539 328.646 258.617C327.587 259.677 326.986 261.107 326.986 262.609C326.986 264.128 327.569 265.541 328.646 266.601ZM330.835 262.609C330.835 262.132 331.029 261.673 331.365 261.337C331.7 261.001 332.159 260.807 332.636 260.807C333.113 260.807 333.572 261.001 333.907 261.337C334.243 261.673 334.437 262.132 334.437 262.609C334.437 263.086 334.243 263.545 333.907 263.88C333.572 264.216 333.113 264.41 332.636 264.41C331.647 264.41 330.835 263.598 330.835 262.609Z" stroke="black" stroke-width="1.60734" stroke-miterlimit="10"/>
<path d="M211.575 254.583L211.575 254.582C211.58 254.182 211.588 253.781 211.595 253.375C211.611 252.493 211.628 251.585 211.628 250.604C211.628 247.631 210.257 245.747 209.145 244.671L209.139 244.665L209.133 244.66C208.822 244.393 208.641 244.006 208.626 243.582L208.626 243.582L208.625 243.572C208.596 243.158 208.742 242.769 209.033 242.447C209.335 242.115 209.757 241.934 210.194 241.934C210.592 241.934 210.965 242.071 211.246 242.337L211.246 242.338L211.25 242.341C212.87 243.824 214.8 246.441 214.8 250.586C214.8 252.05 214.782 253.337 214.747 254.588L214.747 254.591L214.745 254.699C214.728 255.614 214.712 256.499 214.712 257.351C214.712 257.9 214.4 258.384 213.955 258.66L213.572 258.898L213.965 259.121C214.427 259.383 214.755 259.838 214.801 260.374C214.908 261.961 215.14 263.357 215.534 264.737C215.775 265.58 215.28 266.442 214.446 266.685C213.62 266.925 212.726 266.411 212.501 265.599L212.5 265.597C212.046 264.008 211.767 262.437 211.645 260.618L211.645 260.617C211.614 260.194 211.75 259.787 212.021 259.469C212.121 259.356 212.236 259.269 212.373 259.192L212.794 258.958L212.373 258.724C212.209 258.633 212.085 258.562 211.993 258.471C211.704 258.165 211.539 257.772 211.539 257.351C211.539 256.514 211.555 255.677 211.571 254.779L211.575 254.583ZM184.273 267.934H184.431L184.508 267.795C187.087 263.101 187.031 260.035 186.907 254.713L186.907 254.712C186.872 253.425 186.854 252.085 186.854 250.621C186.854 246.172 188.608 242.112 191.799 239.197L191.8 239.196C193.779 237.373 196.21 236.087 198.853 235.426L199.061 235.374L199.055 235.159C199.047 234.861 199.043 234.565 199.039 234.283C199.034 233.963 199.029 233.66 199.02 233.391L199.016 233.271L198.924 233.194C197.484 231.991 196.654 230.212 196.654 228.331C196.654 226.959 197.111 225.62 197.942 224.518L198.019 224.415L197.988 224.291C197.507 222.365 196.939 221.269 196.238 220.597C195.547 219.935 194.755 219.714 193.922 219.482L193.88 219.471L193.879 219.47C192.405 219.067 190.644 218.577 189.324 216.36C189.038 215.878 189.037 215.256 189.309 214.773C189.58 214.291 190.109 213.973 190.683 213.973H215.28C215.853 213.973 216.366 214.274 216.655 214.775L216.656 214.778C216.938 215.253 216.928 215.855 216.638 216.361C215.318 218.577 213.557 219.067 212.084 219.47L212.083 219.471L212.04 219.482C211.208 219.714 210.415 219.935 209.724 220.597C209.024 221.269 208.456 222.365 207.975 224.291L207.944 224.415L208.02 224.518C208.852 225.62 209.309 226.959 209.309 228.331C209.309 230.211 208.462 231.991 207.037 233.195L206.947 233.272L206.943 233.391C206.925 233.904 206.907 234.508 206.907 235.166V235.375L207.11 235.426C209.752 236.087 212.184 237.373 214.162 239.196L214.163 239.197C217.355 242.112 219.109 246.172 219.109 250.621C219.109 251.665 219.091 252.645 219.074 253.558C219.067 253.924 219.061 254.281 219.056 254.626C218.932 260.035 218.876 263.101 221.455 267.795L221.531 267.934H221.69H222.166C223.041 267.934 223.735 268.643 223.735 269.503C223.735 270.362 223.025 271.072 222.166 271.072H183.814C182.92 271.072 182.228 270.362 182.228 269.503C182.228 268.628 182.936 267.934 183.796 267.934H184.273ZM188.162 267.536L187.986 267.916H188.405H217.54H217.959L217.783 267.536C215.711 263.041 215.777 259.636 215.883 254.619H215.883V254.613V254.421C215.888 254.095 215.895 253.757 215.901 253.408C215.918 252.532 215.936 251.585 215.936 250.586C215.936 242.724 209.321 238.025 202.972 238.025C196.606 238.025 190.009 242.706 190.009 250.586C190.009 251.608 190.027 252.578 190.043 253.478C190.05 253.84 190.057 254.191 190.062 254.529L190.062 254.53C190.168 259.636 190.234 263.041 188.162 267.536ZM202.122 232.33L202.122 232.33L202.122 232.337C202.156 232.954 202.173 233.763 202.19 234.542C202.191 234.581 202.192 234.621 202.193 234.66L202.198 234.922H202.46H202.462H202.464H202.466H202.468H202.47H202.472H202.474H202.476H202.478H202.48H202.482H202.484H202.486H202.488H202.49H202.492H202.494H202.496H202.498H202.5H202.502H202.504H202.506H202.508H202.509H202.511H202.513H202.515H202.517H202.519H202.521H202.523H202.525H202.527H202.529H202.531H202.533H202.535H202.537H202.539H202.541H202.543H202.545H202.547H202.549H202.551H202.553H202.555H202.557H202.559H202.561H202.563H202.565H202.567H202.568H202.57H202.572H202.574H202.576H202.578H202.58H202.582H202.584H202.586H202.588H202.59H202.592H202.594H202.596H202.598H202.6H202.602H202.604H202.606H202.608H202.61H202.612H202.614H202.616H202.618H202.62H202.622H202.624H202.625H202.627H202.629H202.631H202.633H202.635H202.637H202.639H202.641H202.643H202.645H202.647H202.649H202.651H202.653H202.655H202.657H202.659H202.661H202.663H202.665H202.667H202.669H202.671H202.673H202.675H202.677H202.679H202.681H202.682H202.684H202.686H202.688H202.69H202.692H202.694H202.696H202.698H202.7H202.702H202.704H202.706H202.708H202.71H202.712H202.714H202.716H202.718H202.72H202.722H202.724H202.726H202.728H202.73H202.732H202.734H202.736H202.738H202.739H202.741H202.743H202.745H202.747H202.749H202.751H202.753H202.755H202.757H202.759H202.761H202.763H202.765H202.767H202.769H202.771H202.773H202.775H202.777H202.779H202.781H202.783H202.785H202.787H202.789H202.791H202.793H202.795H202.797H202.798H202.8H202.802H202.804H202.806H202.808H202.81H202.812H202.814H202.816H202.818H202.82H202.822H202.824H202.826H202.828H202.83H202.832H202.834H202.836H202.838H202.84H202.842H202.844H202.846H202.848H202.85H202.852H202.854H202.855H202.857H202.859H202.861H202.863H202.865H202.867H202.869H202.871H202.873H202.875H202.877H202.879H202.881H202.883H202.885H202.887H202.889H202.891H202.893H202.895H202.897H202.899H202.901H202.903H202.905H202.907H202.909H202.911H202.912H202.914H202.916H202.918H202.92H202.922H202.924H202.926H202.928H202.93H202.932H202.934H202.936H202.938H202.94H202.942H202.944H202.946H202.948H202.95H202.952H202.954H202.956H202.958H202.96H202.962H202.964H202.966H202.968H202.969H202.971H202.973H202.975H202.977H202.979H202.981H202.983H202.985H202.987H202.989H202.991H202.993H202.995H202.997H202.999H203.001H203.003H203.005H203.007H203.009H203.011H203.013H203.015H203.017H203.019H203.021H203.023H203.025H203.027H203.028H203.03H203.032H203.034H203.036H203.038H203.04H203.042H203.044H203.046H203.048H203.05H203.052H203.054H203.056H203.058H203.06H203.062H203.064H203.066H203.068H203.07H203.072H203.074H203.076H203.078H203.08H203.082H203.084H203.085H203.087H203.089H203.091H203.093H203.095H203.097H203.099H203.101H203.103H203.105H203.107H203.109H203.111H203.113H203.115H203.117H203.119H203.121H203.123H203.125H203.127H203.129H203.131H203.133H203.135H203.137H203.139H203.141H203.142H203.144H203.146H203.148H203.15H203.152H203.154H203.156H203.158H203.16H203.162H203.164H203.166H203.168H203.17H203.172H203.174H203.176H203.178H203.18H203.182H203.184H203.186H203.188H203.19H203.192H203.194H203.196H203.198H203.199H203.201H203.203H203.205H203.207H203.209H203.211H203.213H203.215H203.217H203.219H203.221H203.223H203.225H203.227H203.229H203.231H203.233H203.235H203.237H203.239H203.241H203.243H203.245H203.247H203.249H203.251H203.253H203.255H203.257H203.258H203.26H203.262H203.264H203.266H203.268H203.27H203.272H203.274H203.276H203.278H203.28H203.282H203.284H203.286H203.288H203.29H203.292H203.294H203.296H203.298H203.3H203.302H203.304H203.306H203.308H203.31H203.312H203.314H203.315H203.317H203.319H203.321H203.323H203.325H203.327H203.329H203.331H203.333H203.335H203.337H203.339H203.341H203.343H203.345H203.347H203.349H203.351H203.353H203.355H203.357H203.359H203.361H203.363H203.365H203.367H203.369H203.371H203.372H203.374H203.376H203.378H203.38H203.382H203.384H203.386H203.388H203.39H203.392H203.394H203.396H203.398H203.4H203.402H203.404H203.406H203.408H203.41H203.412H203.414H203.416H203.418H203.42H203.422H203.424H203.426H203.428H203.429H203.431H203.433H203.435H203.437H203.439H203.441H203.443H203.445H203.447H203.449H203.451H203.453H203.455H203.457H203.459H203.461H203.463H203.465H203.467H203.729L203.735 234.66C203.736 234.621 203.736 234.581 203.737 234.542C203.754 233.763 203.772 232.954 203.805 232.337C203.835 231.806 204.124 231.322 204.576 231.051C205.538 230.473 206.136 229.433 206.136 228.313C206.136 227.423 205.768 226.613 205.137 226.001L205.135 226C204.803 225.682 204.62 225.226 204.635 224.772L204.661 223.986L204.161 224.592C203.877 224.936 203.441 225.148 202.955 225.148C202.145 225.148 201.373 225.457 200.794 225.997L200.794 225.997L200.791 226.001C200.159 226.613 199.791 227.423 199.791 228.313C199.791 229.433 200.389 230.473 201.351 231.051C201.808 231.325 202.107 231.81 202.122 232.33ZM208.385 217.601L209.105 217.112H208.234H197.693H196.829L197.541 217.6C198.669 218.375 199.785 219.683 200.617 222.146L200.703 222.401L200.958 222.314C201.598 222.094 202.275 221.992 202.955 221.992C203.674 221.992 204.283 222.488 204.481 223.16L204.746 224.057L204.996 223.156C205.867 220.021 207.126 218.457 208.385 217.601Z" fill="#E5E5E5" stroke="black" stroke-width="0.53578"/>
<path d="M138.113 254.582L138.113 254.583L138.116 254.78C138.133 255.677 138.148 256.514 138.148 257.351C138.148 257.772 137.983 258.165 137.694 258.471C137.602 258.562 137.479 258.633 137.314 258.724L136.893 258.958L137.314 259.192C137.451 259.269 137.566 259.356 137.666 259.469C137.937 259.787 138.073 260.194 138.043 260.617L138.042 260.618C137.92 262.437 137.641 264.008 137.187 265.597L137.186 265.599C136.961 266.411 136.067 266.925 135.242 266.685C134.408 266.442 133.912 265.58 134.153 264.737C134.547 263.357 134.779 261.961 134.886 260.374C134.932 259.838 135.26 259.383 135.723 259.121L136.115 258.898L135.732 258.66C135.288 258.384 134.975 257.9 134.975 257.351C134.975 256.498 134.959 255.612 134.942 254.697L134.94 254.591L134.94 254.588C134.905 253.337 134.887 252.05 134.887 250.586C134.887 246.441 136.817 243.824 138.438 242.341L138.438 242.341L138.441 242.337C138.722 242.071 139.096 241.934 139.493 241.934C139.931 241.934 140.353 242.115 140.654 242.447C140.945 242.769 141.092 243.158 141.062 243.572L141.062 243.572L141.062 243.582C141.046 244.006 140.866 244.393 140.555 244.66L140.548 244.665L140.543 244.671C139.43 245.747 138.06 247.631 138.06 250.604C138.06 251.585 138.076 252.493 138.092 253.375C138.1 253.781 138.107 254.182 138.113 254.582ZM165.18 267.795L165.256 267.934H165.414H165.891C166.751 267.934 167.46 268.628 167.46 269.503C167.46 270.362 166.767 271.072 165.874 271.072H127.521C126.663 271.072 125.952 270.362 125.952 269.503C125.952 268.643 126.647 267.934 127.521 267.934H127.998H128.156L128.233 267.795C130.812 263.101 130.755 260.035 130.632 254.626C130.627 254.281 130.62 253.924 130.613 253.558C130.597 252.645 130.579 251.665 130.579 250.621C130.579 246.172 132.333 242.112 135.524 239.197L135.525 239.196C137.504 237.373 139.935 236.087 142.577 235.426L142.78 235.375V235.166C142.78 234.508 142.762 233.904 142.745 233.391L142.741 233.272L142.65 233.195C141.226 231.991 140.379 230.211 140.379 228.331C140.379 226.959 140.836 225.62 141.667 224.518L141.744 224.415L141.713 224.291C141.231 222.365 140.664 221.269 139.963 220.597C139.272 219.935 138.479 219.714 137.647 219.482L137.605 219.471L137.604 219.47C136.131 219.067 134.37 218.577 133.05 216.361C132.759 215.855 132.749 215.253 133.031 214.778L133.033 214.775C133.321 214.274 133.834 213.973 134.407 213.973H159.005C159.578 213.973 160.107 214.291 160.378 214.773C160.65 215.256 160.649 215.878 160.364 216.36C159.043 218.577 157.282 219.067 155.809 219.47L155.807 219.471L155.765 219.482C154.933 219.714 154.14 219.935 153.449 220.597C152.749 221.269 152.181 222.365 151.699 224.291L151.668 224.415L151.745 224.518C152.576 225.62 153.033 226.959 153.033 228.331C153.033 230.212 152.203 231.991 150.763 233.194L150.672 233.271L150.667 233.391C150.658 233.66 150.654 233.963 150.649 234.283C150.645 234.565 150.64 234.861 150.632 235.159L150.626 235.374L150.835 235.426C153.477 236.087 155.909 237.373 157.887 239.196L157.888 239.197C161.08 242.112 162.833 246.172 162.833 250.621C162.833 252.085 162.816 253.425 162.781 254.712L162.781 254.713C162.657 260.035 162.6 263.101 165.18 267.795ZM161.283 267.916H161.701L161.526 267.536C159.453 263.041 159.52 259.636 159.626 254.53L159.626 254.529C159.631 254.191 159.637 253.84 159.644 253.478C159.661 252.578 159.679 251.608 159.679 250.586C159.679 242.706 153.081 238.025 146.715 238.025C140.366 238.025 133.751 242.724 133.751 250.586C133.751 251.585 133.769 252.531 133.786 253.407C133.793 253.757 133.799 254.095 133.804 254.421V254.613H133.804L133.804 254.619C133.91 259.636 133.977 263.041 131.904 267.536L131.729 267.916H132.147H161.283ZM147.565 232.337L147.565 232.337L147.565 232.33C147.58 231.81 147.879 231.325 148.336 231.051C149.298 230.473 149.896 229.433 149.896 228.313C149.896 227.423 149.528 226.613 148.897 226.001L148.897 226.001L148.893 225.997C148.314 225.457 147.542 225.148 146.733 225.148C146.246 225.148 145.811 224.936 145.527 224.592L145.026 223.986L145.052 224.772C145.067 225.226 144.885 225.682 144.552 226L144.551 226.001C143.92 226.613 143.551 227.423 143.551 228.313C143.551 229.433 144.149 230.473 145.111 231.051C145.563 231.322 145.852 231.806 145.882 232.337C145.916 232.954 145.933 233.763 145.95 234.542L145.953 234.66L145.958 234.922H146.221H146.222H146.224H146.226H146.228H146.23H146.232H146.234H146.236H146.238H146.24H146.242H146.244H146.246H146.248H146.25H146.252H146.254H146.256H146.258H146.26H146.262H146.264H146.266H146.268H146.27H146.272H146.274H146.276H146.278H146.279H146.281H146.283H146.285H146.287H146.289H146.291H146.293H146.295H146.297H146.299H146.301H146.303H146.305H146.307H146.309H146.311H146.313H146.315H146.317H146.319H146.321H146.323H146.325H146.327H146.329H146.331H146.333H146.335H146.337H146.338H146.34H146.342H146.344H146.346H146.348H146.35H146.352H146.354H146.356H146.358H146.36H146.362H146.364H146.366H146.368H146.37H146.372H146.374H146.376H146.378H146.38H146.382H146.384H146.386H146.388H146.39H146.392H146.394H146.395H146.397H146.399H146.401H146.403H146.405H146.407H146.409H146.411H146.413H146.415H146.417H146.419H146.421H146.423H146.425H146.427H146.429H146.431H146.433H146.435H146.437H146.439H146.441H146.443H146.445H146.447H146.449H146.451H146.452H146.454H146.456H146.458H146.46H146.462H146.464H146.466H146.468H146.47H146.472H146.474H146.476H146.478H146.48H146.482H146.484H146.486H146.488H146.49H146.492H146.494H146.496H146.498H146.5H146.502H146.504H146.506H146.508H146.509H146.511H146.513H146.515H146.517H146.519H146.521H146.523H146.525H146.527H146.529H146.531H146.533H146.535H146.537H146.539H146.541H146.543H146.545H146.547H146.549H146.551H146.553H146.555H146.557H146.559H146.561H146.563H146.565H146.567H146.568H146.57H146.572H146.574H146.576H146.578H146.58H146.582H146.584H146.586H146.588H146.59H146.592H146.594H146.596H146.598H146.6H146.602H146.604H146.606H146.608H146.61H146.612H146.614H146.616H146.618H146.62H146.622H146.624H146.625H146.627H146.629H146.631H146.633H146.635H146.637H146.639H146.641H146.643H146.645H146.647H146.649H146.651H146.653H146.655H146.657H146.659H146.661H146.663H146.665H146.667H146.669H146.671H146.673H146.675H146.677H146.679H146.681H146.682H146.684H146.686H146.688H146.69H146.692H146.694H146.696H146.698H146.7H146.702H146.704H146.706H146.708H146.71H146.712H146.714H146.716H146.718H146.72H146.722H146.724H146.726H146.728H146.73H146.732H146.734H146.736H146.738H146.739H146.741H146.743H146.745H146.747H146.749H146.751H146.753H146.755H146.757H146.759H146.761H146.763H146.765H146.767H146.769H146.771H146.773H146.775H146.777H146.779H146.781H146.783H146.785H146.787H146.789H146.791H146.793H146.795H146.797H146.798H146.8H146.802H146.804H146.806H146.808H146.81H146.812H146.814H146.816H146.818H146.82H146.822H146.824H146.826H146.828H146.83H146.832H146.834H146.836H146.838H146.84H146.842H146.844H146.846H146.848H146.85H146.852H146.854H146.855H146.857H146.859H146.861H146.863H146.865H146.867H146.869H146.871H146.873H146.875H146.877H146.879H146.881H146.883H146.885H146.887H146.889H146.891H146.893H146.895H146.897H146.899H146.901H146.903H146.905H146.907H146.909H146.911H146.912H146.914H146.916H146.918H146.92H146.922H146.924H146.926H146.928H146.93H146.932H146.934H146.936H146.938H146.94H146.942H146.944H146.946H146.948H146.95H146.952H146.954H146.956H146.958H146.96H146.962H146.964H146.966H146.968H146.969H146.971H146.973H146.975H146.977H146.979H146.981H146.983H146.985H146.987H146.989H146.991H146.993H146.995H146.997H146.999H147.001H147.003H147.005H147.007H147.009H147.011H147.013H147.015H147.017H147.019H147.021H147.023H147.025H147.027H147.028H147.03H147.032H147.034H147.036H147.038H147.04H147.042H147.044H147.046H147.048H147.05H147.052H147.054H147.056H147.058H147.06H147.062H147.064H147.066H147.068H147.07H147.072H147.074H147.076H147.078H147.08H147.082H147.084H147.085H147.087H147.089H147.091H147.093H147.095H147.097H147.099H147.101H147.103H147.105H147.107H147.109H147.111H147.113H147.115H147.117H147.119H147.121H147.123H147.125H147.127H147.129H147.131H147.133H147.135H147.137H147.139H147.141H147.142H147.144H147.146H147.148H147.15H147.152H147.154H147.156H147.158H147.16H147.162H147.164H147.166H147.168H147.17H147.172H147.174H147.176H147.178H147.18H147.182H147.184H147.186H147.188H147.19H147.192H147.194H147.196H147.198H147.199H147.201H147.203H147.205H147.207H147.209H147.211H147.213H147.215H147.217H147.219H147.221H147.223H147.225H147.227H147.489L147.495 234.66C147.496 234.621 147.497 234.581 147.497 234.542C147.514 233.763 147.532 232.954 147.565 232.337ZM141.453 217.112H140.583L141.302 217.601C142.561 218.457 143.82 220.021 144.691 223.156L144.941 224.057L145.206 223.16C145.405 222.488 146.013 221.992 146.733 221.992C147.412 221.992 148.089 222.094 148.729 222.314L148.984 222.401L149.07 222.146C149.902 219.683 151.019 218.375 152.146 217.6L152.858 217.112H151.995H141.453Z" fill="#E5E5E5" stroke="black" stroke-width="0.53578"/>
<path d="M175.166 188.552L175.164 188.552L175.164 188.552L175.164 188.552L175.164 188.552L175.164 188.552L175.164 188.552L175.164 188.553L175.151 188.554L175.137 188.557C175.12 188.561 175.1 188.565 175.078 188.568H174.567C174.565 188.568 174.56 188.567 174.551 188.566C174.544 188.565 174.536 188.563 174.526 188.561C174.516 188.559 174.505 188.557 174.493 188.554C174.447 188.544 174.398 188.532 174.362 188.523L174.362 188.523L174.349 188.52C174.332 188.517 174.29 188.503 174.232 188.48C174.179 188.458 174.128 188.434 174.099 188.42L174.095 188.418C173.658 188.207 173.377 187.835 173.288 187.388L173.285 187.373L173.28 187.358L170.365 178.402L170.305 178.217H170.111H160.502C159.818 178.217 159.255 177.811 159.062 177.187L159.062 177.187L159.061 177.184C158.849 176.534 159.076 175.809 159.65 175.401L159.653 175.399L167.389 169.782L167.547 169.668L167.486 169.483L164.501 160.316C164.501 160.316 164.501 160.316 164.501 160.316C164.351 159.848 164.427 159.358 164.724 158.972L164.724 158.972L164.728 158.966C165.214 158.298 166.197 158.113 166.844 158.584L166.844 158.584L174.669 164.271L174.827 164.386L174.984 164.271L182.806 158.586C182.806 158.586 182.807 158.585 182.807 158.585C183.068 158.401 183.367 158.299 183.658 158.299C184.152 158.299 184.619 158.538 184.923 158.964C185.215 159.379 185.299 159.873 185.153 160.314L185.152 160.315L182.167 169.483L182.107 169.667L182.264 169.782L189.998 175.414C189.998 175.415 189.998 175.415 189.999 175.415C190.542 175.824 190.768 176.533 190.557 177.183C190.347 177.814 189.779 178.217 189.116 178.217H179.507H179.313L179.253 178.403L176.338 187.375L176.333 187.39L176.33 187.406C176.239 187.862 175.952 188.226 175.616 188.38L175.616 188.38L175.608 188.384C175.589 188.394 175.567 188.405 175.547 188.416L175.542 188.418C175.519 188.43 175.497 188.442 175.475 188.453C175.453 188.464 175.434 188.473 175.419 188.479C175.402 188.486 175.396 188.488 175.397 188.488L175.377 188.493L175.357 188.501C175.317 188.519 175.269 188.532 175.227 188.541C175.207 188.545 175.19 188.548 175.178 188.55L175.166 188.552ZM173.926 178.217H173.557L173.671 178.568L174.554 181.288L174.809 182.073L175.064 181.288L175.947 178.568L176.061 178.217H175.692H173.926ZM176.876 175.132H177.07L177.13 174.947L178.402 171.026L178.462 170.841L178.305 170.726L174.966 168.306L174.809 168.192L174.652 168.306L171.313 170.726L171.156 170.841L171.216 171.026L172.488 174.947L172.548 175.132H172.742H176.876ZM177.725 166.063L177.427 166.28L177.725 166.497L179.155 167.539L179.454 167.756L179.568 167.405L180.451 164.685L180.705 163.902L180.039 164.385L177.725 166.063ZM181.378 172.97L181.08 172.754L180.966 173.103L180.418 174.781L180.304 175.132H180.673H183.535H184.36L183.692 174.648L181.378 172.97ZM169.561 164.385L168.895 163.902L169.149 164.685L170.032 167.405L170.147 167.756L170.445 167.539L171.876 166.497L172.174 166.28L171.875 166.063L169.561 164.385ZM168.927 175.132H169.296L169.182 174.781L168.634 173.103L168.52 172.754L168.222 172.97L165.909 174.648L165.24 175.132H166.066H168.927ZM152.062 171.685C152.062 159.151 162.257 148.938 174.809 148.938C187.361 148.938 197.556 159.151 197.556 171.685C197.556 184.219 187.343 194.432 174.809 194.432C162.275 194.432 152.062 184.219 152.062 171.685ZM155.059 171.685C155.059 182.572 163.922 191.435 174.809 191.435C185.696 191.435 194.559 182.572 194.559 171.685C194.559 160.798 185.696 151.935 174.809 151.935C163.922 151.935 155.059 160.798 155.059 171.685Z" fill="#E5E5E5" stroke="black" stroke-width="0.53578"/>
<path d="M261.825 171.865C260.321 170.995 258.465 170.492 256.781 170.295L256.766 170.293H256.75H256.75H256.749H256.749H256.749H256.748H256.748H256.748H256.747H256.747H256.747H256.746H256.746H256.746H256.745H256.745H256.745H256.745H256.744H256.744H256.744H256.743H256.743H256.743H256.742H256.742H256.742H256.741H256.741H256.741H256.74H256.74H256.74H256.739H256.739H256.739H256.738H256.738H256.738H256.737H256.737H256.737H256.736H256.736H256.736H256.736H256.735H256.735H256.735H256.734H256.734H256.734H256.733H256.733H256.733H256.732H256.732H256.732H256.731H256.731H256.731H256.73H256.73H256.73H256.729H256.729H256.729H256.728H256.728H256.728H256.727H256.727H256.727H256.726H256.726H256.726H256.725H256.725H256.725H256.724H256.724H256.724H256.723H256.723H256.723H256.722H256.722H256.722H256.721H256.721H256.721H256.72H256.72H256.719H256.719H256.719H256.718H256.718H256.718H256.717H256.717H256.717H256.716H256.716H256.716H256.715H256.715H256.715H256.714H256.714H256.714H256.713H256.713H256.713H256.712H256.712H256.712H256.711H256.711H256.711H256.71H256.71H256.709H256.709H256.709H256.708H256.708H256.708H256.707H256.707H256.707H256.706H256.706H256.706H256.705H256.705H256.705H256.704H256.704H256.704H256.703H256.703H256.702H256.702H256.702H256.701H256.701H256.701H256.7H256.7H256.7H256.699H256.699H256.699H256.698H256.698H256.698H256.697H256.697H256.696H256.696H256.696H256.695H256.695H256.695H256.694H256.694H256.694H256.693H256.693H256.693H256.692H256.692H256.692H256.691H256.691H256.69H256.69H256.69H256.689H256.689H256.689H256.688H256.688H256.688H256.687H256.687H256.687H256.686H256.686H256.685H256.685H256.685H256.684H256.684H256.684H256.683H256.683H256.683H256.682H256.682H256.681H256.681H256.681H256.68H256.68H256.68H256.679H256.679H256.679H256.678H256.678H256.678H256.677H256.677H256.676H256.676H256.676H256.675H256.675H256.675H256.674H256.674H256.674H256.673H256.673H256.672H256.672H256.672H256.671H256.671H256.671H256.67H256.67H256.67H256.669H256.669H256.668H256.668H256.668H256.667H256.667H256.667H256.666H256.666H256.666H256.665H256.665H256.665H256.664H256.664H256.663H256.663H256.663H256.662H256.662H256.662H256.661H256.661H256.661H256.66H256.66H256.659H256.659H256.659H256.658H256.658H256.658H256.657H256.657H256.657H256.656H256.656H256.655H256.655H256.655H256.654H256.654H256.654H256.653H256.653H256.653H256.652H256.652H256.651H256.651H256.651H256.65H256.65H256.65H256.649H256.649H256.649H256.648H256.648H256.648H256.647H256.647H256.646H256.646H256.646H256.645H256.645H256.645H256.644H256.644H256.644H256.643H256.643H256.642H256.642H256.642H256.641H256.641H256.641H256.64H256.64H256.64H256.639H256.639H256.639H256.638H256.638H256.637H256.637H256.637H256.636H256.636H256.636H256.635H256.635H256.635H256.634H256.634H256.634H256.633H256.633H256.632H256.632H256.632H256.631H256.631H256.631H256.63H256.63H256.63H256.629H256.629H256.629H256.628H256.628H256.627H256.627H256.627H256.626H256.626H256.626H256.625H256.625H256.625H256.624H256.624H256.624H256.623H256.623H256.622H256.622H256.622H256.621H256.621H256.621H256.62H256.62H256.62H256.619H256.619H256.619H256.618H256.618H256.618H256.617H256.617H256.617H256.616H256.616H256.615H256.615H256.615H256.614H256.614H256.614H256.613H256.613H256.613H256.612H256.612H256.612H256.611H256.611H256.611H256.61H256.61H256.61H256.609H256.609H256.609H256.608H256.608H256.608H256.607H256.607H256.606H256.606H256.606H256.605H256.605H256.605H256.604H256.604H256.604H256.603H256.603H256.603H256.602H256.602H256.602H256.601H256.601H256.601H256.6H256.6H256.6H256.599H256.599H256.599H256.598H256.598H256.598H256.597H256.597H256.597H256.596H256.596H256.596H256.595H256.595H256.595H256.594H256.594H256.594H256.593H256.593H256.593H256.592H256.592H256.592H256.591H256.591H256.591H256.59H256.59H256.59H256.589H256.589H256.589H256.588H256.588H256.588H256.587H256.587H256.587H256.586H256.586H256.586H256.585H256.585H256.585H256.584H256.584H256.584H256.583H256.583H256.583H256.583H256.582H256.582H256.582H256.581H256.581H256.581H256.58H256.58H256.58H256.579H256.579H256.579H256.578H256.578H256.578H256.577H256.577H256.577H256.576H256.576H256.576H256.576H256.575H256.575H256.575H256.574H256.574H256.574H256.573H256.419L256.341 170.427L232.902 211.052L232.874 211.101L232.868 211.158L231.509 223.946L231.445 224.548L231.933 224.19L242.311 216.595L242.357 216.562L242.385 216.513L265.825 175.87L265.903 175.734L265.822 175.598C265.331 174.779 264.731 174.07 264.024 173.435L264.024 173.435L264.021 173.432C263.486 172.968 262.915 172.539 262.292 172.146C262.276 172.133 262.261 172.124 262.249 172.117L262.244 172.112L262.213 172.095C262.154 172.061 262.091 172.023 262.024 171.983C261.959 171.943 261.89 171.902 261.825 171.865ZM261.825 171.865C261.825 171.865 261.825 171.865 261.825 171.865L261.692 172.098L261.826 171.866C261.826 171.866 261.826 171.866 261.825 171.865ZM273.168 175.921L273.165 175.927C272.876 176.408 272.421 176.837 271.857 176.984C271.05 177.205 270.061 176.889 269.66 175.964C268.84 174.587 267.936 173.319 266.862 172.175L266.861 172.174C265.976 171.218 264.97 170.369 263.827 169.658L263.801 169.642L263.8 169.641C263.787 169.633 263.771 169.623 263.754 169.609C263.606 169.511 263.444 169.414 263.284 169.334L263.277 169.331L263.27 169.327C260.619 167.801 257.698 167.092 254.801 167.364C254.254 167.498 253.883 167.3 253.598 167.147C253.583 167.139 253.568 167.131 253.553 167.124L253.543 167.118L253.543 167.118C253.191 166.911 252.77 166.45 252.626 165.896C252.402 165.081 252.716 164.54 252.9 164.226C252.9 164.226 252.9 164.226 252.901 164.225L253.132 164.361L273.168 175.921ZM273.168 175.921L273.172 175.914M273.168 175.921L273.172 175.914M273.172 175.914C273.361 175.557 273.504 174.935 273.175 174.275C271.494 170.874 268.775 167.884 265.427 165.949L265.427 165.948M273.172 175.914L265.427 165.948M265.427 165.948L265.423 165.946M265.427 165.948L265.423 165.946M265.423 165.946L265.268 165.86C265.267 165.86 265.266 165.859 265.266 165.859L265.423 165.946ZM272.39 179.853L272.39 179.853L272.386 179.854C270.79 180.191 269.133 179.753 267.964 178.666L267.717 178.437L267.549 178.729L244.73 218.272C244.726 218.279 244.722 218.285 244.718 218.291C244.674 218.363 244.622 218.446 244.559 218.522C244.485 218.612 244.425 218.655 244.387 218.666L244.344 218.68L244.308 218.706L230.523 228.738L230.504 228.752L230.488 228.769C230.11 229.161 229.482 229.163 228.946 228.848C228.403 228.528 228.09 227.999 228.238 227.473L228.244 227.452L228.247 227.429L230.047 210.472L230.052 210.421L230.038 210.371C230.026 210.328 230.031 210.256 230.069 210.154C230.105 210.057 230.16 209.965 230.202 209.897L230.202 209.897L230.207 209.889L252.975 170.43L253.132 170.158L252.839 170.046C251.484 169.527 250.349 168.371 249.949 166.871L249.948 166.869C249.578 165.521 249.751 163.913 250.629 162.718L250.638 162.706L250.646 162.692C251.375 161.415 252.825 160.546 254.358 160.496L254.358 160.496L254.366 160.495C256.914 160.338 259.513 160.6 261.988 161.316L262.19 161.374L262.295 161.192L271.314 145.56L271.426 145.365L271.254 145.221C269.843 144.042 269.409 141.922 270.272 140.439L270.272 140.439L271.402 138.496L271.402 138.494C272.441 136.68 274.888 136.018 276.701 137.074L276.701 137.074L284.485 141.578L284.485 141.578C286.314 142.633 286.966 145.069 286.147 146.839L285.023 148.771L285.023 148.772C284.051 150.454 281.901 151.134 280.151 150.407L279.933 150.317L279.816 150.521L270.85 166.064L270.744 166.247L270.897 166.393C272.867 168.259 274.506 170.51 275.728 173.059C276.307 174.336 276.23 175.808 275.62 177.182L275.62 177.183C275.015 178.56 273.865 179.572 272.39 179.853ZM262.227 172.105C262.224 172.104 262.224 172.104 262.227 172.106L262.227 172.105ZM282.397 147.47L282.398 147.468L283.527 145.509C283.527 145.509 283.527 145.508 283.527 145.508C283.659 145.283 283.67 145.013 283.61 144.783C283.55 144.553 283.409 144.321 283.184 144.189L283.183 144.188L275.242 139.596C275.241 139.596 275.241 139.596 275.241 139.596C275.018 139.465 274.754 139.455 274.549 139.49C274.443 139.508 274.34 139.541 274.251 139.586C274.169 139.626 274.069 139.694 274.009 139.8C274.008 139.801 274.007 139.802 274.007 139.803L272.881 141.74C272.88 141.741 272.88 141.741 272.88 141.741C272.748 141.966 272.737 142.237 272.797 142.467C272.836 142.617 272.909 142.767 273.018 142.891L272.905 143.095L273.142 143.224L273.336 143.33L273.38 143.354L273.429 143.36C273.669 143.392 273.896 143.454 274.121 143.589L274.121 143.589L274.125 143.592L280.122 147.051C280.123 147.052 280.123 147.052 280.124 147.053C280.36 147.195 280.54 147.363 280.655 147.535L280.689 147.587L280.743 147.619L281.077 147.812C281.077 147.812 281.078 147.812 281.078 147.813C281.303 147.945 281.573 147.955 281.803 147.896C282.033 147.836 282.265 147.695 282.397 147.47ZM265.149 162.09L265.015 162.322L265.247 162.456L268.247 164.187L268.479 164.321L268.613 164.089L277.262 149.093L277.396 148.861L277.164 148.727L274.163 146.996L273.931 146.862L273.797 147.094L265.149 162.09ZM256.082 178.873L256.083 178.871C256.308 178.475 256.619 178.24 256.956 178.15C257.293 178.06 257.685 178.11 258.082 178.336C258.479 178.562 258.719 178.874 258.81 179.211C258.901 179.548 258.852 179.938 258.619 180.334L258.618 180.336L240.703 211.388L240.702 211.389C240.478 211.785 240.167 212.021 239.83 212.111C239.492 212.2 239.101 212.151 238.703 211.925C238.307 211.7 238.072 211.388 237.982 211.051C237.892 210.713 237.942 210.322 238.167 209.924C238.168 209.923 238.168 209.923 238.168 209.923L256.082 178.873Z" fill="#E5E5E5" stroke="black" stroke-width="0.53578"/>
<path d="M87.7762 171.865C87.7121 171.902 87.644 171.943 87.5789 171.982L87.5771 171.983C87.5104 172.023 87.4467 172.061 87.3879 172.095L87.3567 172.112L87.3521 172.117C87.3405 172.124 87.3255 172.133 87.3095 172.146C86.6879 172.538 86.0982 172.967 85.577 173.435L85.5769 173.435C84.8703 174.07 84.2701 174.779 83.7787 175.598L83.6978 175.734L83.7764 175.87L107.216 216.53L107.244 216.579L107.29 216.613L117.668 224.208L118.156 224.565L118.092 223.963L116.733 211.158L116.727 211.101L116.699 211.052L93.2597 170.427L93.1824 170.293H93.0277H93.0274H93.0271H93.0268H93.0264H93.0261H93.0258H93.0255H93.0252H93.0249H93.0246H93.0243H93.0239H93.0236H93.0233H93.023H93.0227H93.0224H93.022H93.0217H93.0214H93.0211H93.0208H93.0205H93.0201H93.0198H93.0195H93.0192H93.0189H93.0185H93.0182H93.0179H93.0176H93.0172H93.0169H93.0166H93.0163H93.0159H93.0156H93.0153H93.015H93.0146H93.0143H93.014H93.0137H93.0133H93.013H93.0127H93.0124H93.012H93.0117H93.0114H93.011H93.0107H93.0104H93.0101H93.0097H93.0094H93.0091H93.0087H93.0084H93.0081H93.0077H93.0074H93.0071H93.0067H93.0064H93.0061H93.0057H93.0054H93.0051H93.0047H93.0044H93.0041H93.0037H93.0034H93.0031H93.0027H93.0024H93.002H93.0017H93.0014H93.001H93.0007H93.0004H93H92.9997H92.9993H92.999H92.9987H92.9983H92.998H92.9976H92.9973H92.997H92.9966H92.9963H92.9959H92.9956H92.9953H92.9949H92.9946H92.9942H92.9939H92.9935H92.9932H92.9928H92.9925H92.9922H92.9918H92.9915H92.9911H92.9908H92.9904H92.9901H92.9897H92.9894H92.989H92.9887H92.9884H92.988H92.9877H92.9873H92.987H92.9866H92.9863H92.9859H92.9856H92.9852H92.9849H92.9845H92.9842H92.9838H92.9835H92.9831H92.9828H92.9824H92.9821H92.9817H92.9814H92.981H92.9807H92.9803H92.98H92.9796H92.9793H92.9789H92.9786H92.9782H92.9778H92.9775H92.9771H92.9768H92.9764H92.9761H92.9757H92.9754H92.975H92.9747H92.9743H92.974H92.9736H92.9732H92.9729H92.9725H92.9722H92.9718H92.9715H92.9711H92.9708H92.9704H92.97H92.9697H92.9693H92.969H92.9686H92.9683H92.9679H92.9675H92.9672H92.9668H92.9665H92.9661H92.9658H92.9654H92.965H92.9647H92.9643H92.964H92.9636H92.9633H92.9629H92.9625H92.9622H92.9618H92.9615H92.9611H92.9607H92.9604H92.96H92.9597H92.9593H92.9589H92.9586H92.9582H92.9579H92.9575H92.9571H92.9568H92.9564H92.9561H92.9557H92.9553H92.955H92.9546H92.9543H92.9539H92.9535H92.9532H92.9528H92.9525H92.9521H92.9517H92.9514H92.951H92.9507H92.9503H92.9499H92.9496H92.9492H92.9488H92.9485H92.9481H92.9478H92.9474H92.947H92.9467H92.9463H92.946H92.9456H92.9452H92.9449H92.9445H92.9441H92.9438H92.9434H92.9431H92.9427H92.9423H92.942H92.9416H92.9412H92.9409H92.9405H92.9402H92.9398H92.9394H92.9391H92.9387H92.9384H92.938H92.9376H92.9373H92.9369H92.9365H92.9362H92.9358H92.9355H92.9351H92.9347H92.9344H92.934H92.9336H92.9333H92.9329H92.9326H92.9322H92.9318H92.9315H92.9311H92.9308H92.9304H92.93H92.9297H92.9293H92.9289H92.9286H92.9282H92.9279H92.9275H92.9271H92.9268H92.9264H92.9261H92.9257H92.9253H92.925H92.9246H92.9243H92.9239H92.9235H92.9232H92.9228H92.9225H92.9221H92.9217H92.9214H92.921H92.9207H92.9203H92.9199H92.9196H92.9192H92.9189H92.9185H92.9181H92.9178H92.9174H92.9171H92.9167H92.9163H92.916H92.9156H92.9153H92.9149H92.9145H92.9142H92.9138H92.9135H92.9131H92.9128H92.9124H92.912H92.9117H92.9113H92.911H92.9106H92.9103H92.9099H92.9095H92.9092H92.9088H92.9085H92.9081H92.9078H92.9074H92.9071H92.9067H92.9063H92.906H92.9056H92.9053H92.9049H92.9046H92.9042H92.9039H92.9035H92.9031H92.9028H92.9024H92.9021H92.9017H92.9014H92.901H92.9007H92.9003H92.9H92.8996H92.8993H92.8989H92.8986H92.8982H92.8979H92.8975H92.8972H92.8968H92.8965H92.8961H92.8958H92.8954H92.8951H92.8947H92.8944H92.894H92.8937H92.8933H92.893H92.8926H92.8923H92.8919H92.8916H92.8912H92.8909H92.8905H92.8902H92.8898H92.8895H92.8891H92.8888H92.8884H92.8881H92.8878H92.8874H92.8871H92.8867H92.8864H92.886H92.8857H92.8853H92.885H92.8847H92.8843H92.884H92.8836H92.8833H92.8829H92.8826H92.8823H92.8819H92.8816H92.8812H92.8809H92.8806H92.8802H92.8799H92.8795H92.8792H92.8789H92.8785H92.8782H92.8778H92.8775H92.8772H92.8768H92.8765H92.8762H92.8758H92.8755H92.8751H92.8748H92.8745H92.8741H92.8738H92.8735H92.8731H92.8728H92.8725H92.8721H92.8718H92.8715H92.8711H92.8708H92.8705H92.8701H92.8698H92.8695H92.8691H92.8688H92.8685H92.8682H92.8678H92.8675H92.8672H92.8668H92.8665H92.8662H92.8659H92.8655H92.8652H92.8649H92.8646H92.8642H92.8639H92.8636H92.8633H92.8629H92.8626H92.8623H92.862H92.8616H92.8613H92.861H92.8607H92.8603H92.86H92.8597H92.8594H92.8591H92.8587H92.8584H92.8581H92.8578H92.8575H92.8572H92.8568H92.8565H92.8562H92.8559H92.8556H92.8553H92.8549H92.8546H92.8543H92.854H92.8537H92.8534H92.8531H92.8527H92.8524H92.8521H92.8518H92.8515H92.8512H92.8356L92.82 170.295C91.1347 170.492 89.2623 171.013 87.7762 171.865ZM87.7762 171.865L87.9092 172.098M87.7762 171.865C87.7761 171.865 87.776 171.865 87.7759 171.865L87.9092 172.098M87.9092 172.098C89.3565 171.267 91.1921 170.755 92.8512 170.561L85.7559 173.634C86.2677 173.175 86.8502 172.751 87.4679 172.363C87.4767 172.354 87.4856 172.349 87.4944 172.345L87.4944 172.345C87.5032 172.34 87.512 172.336 87.5209 172.327C87.5826 172.292 87.6488 172.252 87.715 172.212L87.7151 172.212C87.7813 172.173 87.8474 172.133 87.9092 172.098ZM77.1978 179.854L77.1979 179.854L77.1929 179.853C75.7177 179.571 74.5512 178.542 73.9828 177.203L73.9815 177.201C73.3706 175.808 73.2941 174.353 73.8731 173.076C75.095 170.527 76.7168 168.276 78.7027 166.411L78.8574 166.266L78.7514 166.082L69.7851 150.538L69.668 150.335L69.4511 150.425C67.6827 151.152 65.5503 150.471 64.5783 148.79L64.5779 148.789L63.4545 146.857C62.636 145.088 63.303 142.652 65.1162 141.596C65.1163 141.595 65.1164 141.595 65.1165 141.595L72.8996 137.092L72.9002 137.091C74.7117 136.036 77.1431 136.696 78.1995 138.513L79.3291 140.456L79.3291 140.456C80.1922 141.939 79.7582 144.059 78.3475 145.238L78.1748 145.383L78.2873 145.578L87.3065 161.21L87.4113 161.391L87.6129 161.333C90.0882 160.618 92.6696 160.356 95.2352 160.513V160.513L95.24 160.513C96.776 160.58 98.2267 161.451 98.9557 162.711L98.9624 162.723L98.9703 162.734C99.833 163.929 100.006 165.539 99.6522 166.889C99.2519 168.391 98.1339 169.544 96.763 170.063L96.4683 170.175L96.6257 170.447L119.374 209.885L119.377 209.889L119.386 209.906C119.43 209.986 119.48 210.074 119.514 210.167C119.555 210.274 119.556 210.337 119.547 210.365L119.531 210.418L119.536 210.472L121.337 227.429L121.339 227.452L121.345 227.473C121.493 227.998 121.182 228.527 120.64 228.846C120.096 229.149 119.47 229.157 119.095 228.769L119.079 228.752L119.06 228.738L105.276 218.706L105.24 218.68L105.197 218.666C105.159 218.655 105.099 218.612 105.025 218.522C104.961 218.446 104.91 218.363 104.865 218.291C104.861 218.285 104.857 218.279 104.854 218.272L82.052 178.729L81.8838 178.437L81.6374 178.666C80.4518 179.769 78.7944 180.191 77.1978 179.854ZM87.3745 172.105L87.374 172.106C87.3766 172.104 87.3771 172.104 87.3745 172.105ZM76.6782 143.112L76.5651 142.909C76.674 142.785 76.7475 142.634 76.7864 142.484C76.846 142.254 76.8353 141.984 76.7032 141.758C76.7031 141.758 76.703 141.758 76.7029 141.758L75.5749 139.818C75.5147 139.711 75.4139 139.644 75.3329 139.603C75.2438 139.558 75.1405 139.526 75.0345 139.508C74.829 139.473 74.565 139.483 74.3426 139.613C74.3422 139.614 74.3419 139.614 74.3416 139.614L66.4008 144.205L66.4008 144.205L66.399 144.206C66.1739 144.339 66.033 144.57 65.9733 144.801C65.9138 145.03 65.9245 145.301 66.0562 145.526C66.0565 145.526 66.0567 145.526 66.0569 145.527L67.1853 147.485L67.1853 147.485L67.1865 147.487C67.3189 147.713 67.5502 147.854 67.7804 147.913C68.0103 147.973 68.2806 147.962 68.5055 147.83C68.5058 147.83 68.5061 147.83 68.5064 147.83L68.8402 147.636L68.8987 147.603L68.9341 147.545C69.0438 147.367 69.2151 147.217 69.4596 147.07L75.4585 143.609L75.4586 143.609L75.4626 143.607C75.6968 143.466 75.9209 143.394 76.1367 143.38L76.1955 143.376L76.2473 143.348L76.4414 143.242L76.6782 143.112ZM80.9701 164.089L81.1039 164.321L81.336 164.187L84.3365 162.456L84.5685 162.322L84.4347 162.09L75.7862 147.094L75.6523 146.862L75.4202 146.996L72.4197 148.727L72.1877 148.861L72.3215 149.093L80.9701 164.089ZM76.3906 174.275L76.3906 174.275L76.3882 174.28C76.0827 174.932 76.2017 175.551 76.394 175.914L76.3973 175.921L76.401 175.927C76.6894 176.408 77.1452 176.837 77.7087 176.984C78.5163 177.205 79.5057 176.889 79.9064 175.963C80.7081 174.587 81.6289 173.302 82.7022 172.176L82.703 172.176C83.607 171.219 84.6136 170.368 85.74 169.657L85.7653 169.641L85.7658 169.641C85.7766 169.634 85.7903 169.626 85.8051 169.614C85.885 169.567 85.9617 169.522 86.0402 169.477L86.041 169.476C86.1237 169.428 86.2083 169.379 86.2975 169.326C88.9471 167.801 91.8651 167.093 94.7603 167.363C95.0363 167.44 95.2739 167.43 95.4876 167.37C95.6933 167.312 95.8689 167.209 96.0124 167.124L96.0229 167.118C96.3755 166.91 96.7968 166.449 96.9406 165.894L96.9406 165.894L96.9415 165.891C97.143 165.064 96.8532 164.545 96.6651 164.225L96.6639 164.223C96.3407 163.684 95.6802 163.373 95.0021 163.334L95.0022 163.334L94.9933 163.334C91.303 163.245 87.6519 163.922 84.3 165.859L84.1431 165.946L84.1431 165.946L84.1392 165.949C80.7908 167.884 78.0721 170.874 76.3906 174.275ZM91.4835 178.336L91.4869 178.334C91.8847 178.1 92.2753 178.047 92.6116 178.135C92.9475 178.222 93.2582 178.458 93.4832 178.854L93.4841 178.855L111.398 209.923C111.398 209.923 111.398 209.923 111.398 209.923C111.624 210.321 111.674 210.713 111.584 211.051C111.494 211.388 111.259 211.7 110.863 211.925C110.465 212.151 110.074 212.2 109.736 212.11C109.399 212.021 109.088 211.785 108.863 211.389L108.862 211.388L90.9485 180.338C90.9484 180.337 90.9482 180.337 90.9481 180.337C90.7223 179.939 90.6729 179.547 90.7627 179.21C90.8524 178.872 91.088 178.561 91.4835 178.336Z" fill="#E5E5E5" stroke="black" stroke-width="0.53578"/>
<path d="M174.567 94.1498H175.078C175.1 94.1529 175.12 94.1565 175.137 94.1606L175.151 94.1637L175.164 94.1653L175.164 94.1653L175.164 94.1653L175.164 94.1653L175.164 94.1653L175.164 94.1653L175.164 94.1654L175.166 94.1656L175.178 94.1675C175.19 94.1694 175.207 94.1724 175.227 94.1768C175.269 94.1859 175.317 94.1992 175.357 94.2164L175.377 94.2249L175.397 94.23C175.397 94.23 175.404 94.232 175.419 94.2384C175.434 94.2451 175.453 94.2541 175.475 94.265C175.497 94.2758 175.519 94.2874 175.542 94.2993L175.548 94.3024C175.568 94.3128 175.589 94.3241 175.608 94.3334L175.608 94.3336L175.616 94.3374C175.952 94.4914 176.239 94.8553 176.33 95.3121L176.333 95.3275L176.338 95.3423L179.253 104.315L179.313 104.5H179.507H189.116C189.779 104.5 190.347 104.904 190.557 105.535C190.768 106.184 190.542 106.894 189.999 107.302C189.998 107.303 189.998 107.303 189.998 107.303L182.264 112.936L182.107 113.05L182.167 113.235L185.152 122.402L185.153 122.404C185.299 122.844 185.215 123.339 184.923 123.754C184.619 124.18 184.152 124.418 183.658 124.418C183.367 124.418 183.068 124.316 182.807 124.133C182.807 124.132 182.806 124.132 182.806 124.132L174.984 118.446L174.827 118.332L174.669 118.446L166.844 124.134L166.844 124.134C166.197 124.605 165.214 124.42 164.728 123.752L164.728 123.751L164.724 123.746C164.427 123.36 164.351 122.87 164.501 122.402C164.501 122.402 164.501 122.402 164.501 122.402L167.486 113.235L167.547 113.05L167.389 112.936L159.653 107.319L159.65 107.317C159.076 106.909 158.849 106.184 159.061 105.534L159.062 105.53C159.255 104.906 159.818 104.5 160.502 104.5H170.111H170.305L170.365 104.315L173.28 95.3602L173.285 95.3452L173.288 95.3298C173.377 94.8827 173.658 94.5107 174.095 94.2998L174.095 94.2998L174.099 94.2981C174.128 94.2835 174.179 94.2599 174.232 94.2381C174.29 94.2146 174.332 94.201 174.349 94.1975L174.349 94.1978L174.362 94.1948C174.398 94.1858 174.447 94.1735 174.493 94.1635C174.516 94.1585 174.536 94.1546 174.551 94.152C174.56 94.1506 174.565 94.15 174.567 94.1498ZM173.671 104.15L173.557 104.5H173.926H175.692H176.061L175.947 104.15L175.064 101.43L174.809 100.645L174.554 101.43L173.671 104.15ZM177.13 107.771L177.07 107.585H176.876H172.742H172.548L172.488 107.771L171.216 111.692L171.156 111.877L171.313 111.991L174.652 114.411L174.809 114.525L174.966 114.411L178.305 111.991L178.462 111.877L178.402 111.692L177.13 107.771ZM177.725 116.221L177.427 116.438L177.725 116.654L180.039 118.332L180.705 118.816L180.451 118.033L179.568 115.313L179.454 114.962L179.155 115.179L177.725 116.221ZM180.966 109.614L181.08 109.964L181.378 109.748L183.692 108.07L184.36 107.585H183.535H180.673H180.304L180.418 107.936L180.966 109.614ZM169.149 118.033L168.895 118.816L169.561 118.332L171.875 116.654L172.174 116.438L171.876 116.221L170.445 115.179L170.147 114.962L170.032 115.313L169.149 118.033ZM169.182 107.936L169.296 107.585H168.927H166.066H165.24L165.909 108.07L168.222 109.748L168.52 109.964L168.634 109.614L169.182 107.936ZM174.809 133.78C162.257 133.78 152.062 123.567 152.062 111.033C152.062 98.4986 162.275 88.2856 174.809 88.2856C187.343 88.2856 197.556 98.4986 197.556 111.033C197.556 123.567 187.361 133.78 174.809 133.78ZM174.809 91.2825C163.922 91.2825 155.059 100.146 155.059 111.033C155.059 121.92 163.922 130.783 174.809 130.783C185.696 130.783 194.559 121.92 194.559 111.033C194.559 100.146 185.696 91.2825 174.809 91.2825Z" fill="#E5E5E5" stroke="black" stroke-width="0.53578"/>
<path d="M197.71 45.7477C188.762 53.908 180.943 47.8143 175.983 39.7246C176.813 38.2056 177.536 36.6865 178.136 35.2028C181.737 26.5303 186.644 10.3862 179.531 2.1199C177.36 -0.405922 173.071 -0.723856 170.547 1.43104C167.264 4.2218 166.77 9.13213 166.699 13.1417C166.523 21.9202 168.958 31.9528 173.653 39.9895C169.541 47.2137 163.416 53.0072 155.403 49.4746C154.273 48.98 153.267 50.658 154.415 51.1526C163.257 55.0385 170.247 49.0154 174.748 41.7735C176.018 43.7164 177.448 45.5357 179.001 47.1431C185.09 53.4311 192.839 52.7776 199.052 47.1077C200.022 46.2776 198.646 44.8999 197.71 45.7477ZM172.841 33.4895C170.564 27.9433 169.17 21.9555 168.746 15.9854C168.464 11.9052 168.341 5.44056 172.082 2.72044C176.301 -0.352933 179.513 4.80468 180.325 8.28431C181.702 14.2014 180.501 20.8074 179.036 26.5833C178.242 29.692 176.848 33.8251 174.871 37.7816C174.112 36.3509 173.424 34.9026 172.841 33.4895Z" fill="#E5E5E5"/>
<path d="M226.762 43.3455C224.591 46.7898 221.114 45.8713 218.273 43.9814C219.014 43.2219 219.667 42.374 220.232 41.3672C221.979 38.2585 220.673 26.0004 214.919 27.7667C208.018 29.9039 210.613 38.8238 213.842 42.745C214.248 43.2219 214.69 43.6811 215.166 44.1227C214.601 44.4759 214.001 44.7939 213.348 45.0412C209.289 46.5779 204.559 44.9352 200.958 43.0099C199.034 41.9678 197.304 40.6077 195.804 39.0181C196.669 38.2409 197.463 37.4284 198.187 36.5629C201.876 32.2001 206.306 21.0724 197.587 19.0588C190.668 17.4691 188.621 28.1376 189.768 32.73C190.333 35.0439 191.497 37.1281 193.033 38.9827C188.232 42.7096 181.296 44.158 176.195 40.3781C175.189 39.6363 174.218 41.3143 175.206 42.0561C181.296 46.5602 188.691 44.5289 194.216 40.3075C197.128 43.2749 200.958 45.4651 204.629 46.6838C208.9 48.0969 213.313 47.673 216.666 45.3061C220.479 47.9732 225.58 48.8211 228.439 44.2993C229.11 43.2572 227.433 42.2857 226.762 43.3455ZM192.539 34.5493C190.227 30.2572 190.774 23.033 195.998 21.09C200.446 19.4474 201.029 26.6362 200.393 29.0208C199.564 32.0941 197.234 34.8319 195.133 37.1104C194.957 37.2871 194.78 37.4637 194.604 37.6403C193.827 36.6689 193.121 35.6267 192.539 34.5493ZM212.378 35.4501C212.183 33.9664 212.836 32.7123 213.472 31.4229C215.66 26.9542 218.008 32.0941 218.484 33.2422C219.914 36.7572 219.12 40.3781 216.755 42.8156C216.19 42.3387 215.66 41.8442 215.219 41.3672C213.701 39.7599 212.66 37.6403 212.378 35.4501Z" fill="#E5E5E5"/>
<path d="M121.144 44.3346C123.986 48.8564 129.087 48.0086 132.917 45.3414C136.27 47.7083 140.683 48.1322 144.954 46.7192C148.625 45.5004 152.456 43.2925 155.368 40.3428C160.91 44.5643 168.305 46.5955 174.377 42.0914C175.365 41.3496 174.412 39.6539 173.389 40.4134C168.288 44.1933 161.351 42.745 156.55 39.0181C158.068 37.1634 159.233 35.0792 159.816 32.7653C160.945 28.1729 158.915 17.5044 151.997 19.0941C143.295 21.09 147.708 32.2354 151.397 36.5982C152.12 37.446 152.932 38.2762 153.779 39.0534C152.279 40.6431 150.549 42.0031 148.625 43.0452C145.025 44.9882 140.295 46.6132 136.235 45.0765C135.582 44.8292 134.982 44.5113 134.417 44.158C134.894 43.7164 135.353 43.2572 135.741 42.7803C138.971 38.8768 141.565 29.9392 134.664 27.802C128.91 26.018 127.604 38.2939 129.352 41.4026C129.916 42.3917 130.569 43.2572 131.311 44.0167C128.469 45.9067 124.992 46.8428 122.821 43.3808C122.15 42.2857 120.474 43.2572 121.144 44.3346ZM154.997 37.6403C154.821 37.4637 154.626 37.2871 154.468 37.1104C152.367 34.8319 150.037 32.0941 149.208 29.0208C148.573 26.6362 149.155 19.4474 153.603 21.09C158.827 23.033 159.357 30.2572 157.062 34.5493C156.444 35.6268 155.756 36.6689 154.997 37.6403ZM134.364 41.3673C133.923 41.8442 133.393 42.3387 132.829 42.8156C130.464 40.3781 129.669 36.7395 131.099 33.2422C131.558 32.0941 133.923 26.9542 136.112 31.4229C136.747 32.7123 137.382 33.9664 137.206 35.4501C136.923 37.6403 135.882 39.7599 134.364 41.3673Z" fill="#E5E5E5"/>
<path d="M118.905 85.5471C115.885 84.7169 111.186 82.827 107.124 82.88C107.018 82.1558 106.894 81.5023 106.753 81.043C105.552 76.8392 102.567 73.2183 97.8507 73.1653C95.6252 73.1476 93.3996 73.6599 91.333 74.596C89.0369 67.2658 84.6564 60.0063 78.4213 56.1381C71.3208 51.74 60.8113 50.274 54.5409 56.9329C49.8778 61.8963 54.0286 70.4275 59.9634 72.0172C65.7216 73.5715 72.151 71.24 71.5681 64.4044C71.0029 57.6924 62.6482 58.1164 60.564 63.5036C60.1047 64.6694 61.9947 65.1816 62.4363 64.0158C64.0259 59.9357 69.9077 60.5185 69.6958 65.4112C69.6251 67.2835 68.9539 69.0321 67.117 69.8446C64.4145 71.0457 60.8113 70.8691 58.3384 69.1734C54.7352 66.7006 52.8276 60.8011 56.6075 57.5688C59.5219 55.096 63.5314 53.9479 67.3466 54.3365C76.5667 55.3079 83.314 61.5253 87.1822 69.7033C88.0124 71.452 88.8426 73.4302 89.5491 75.5321C86.723 77.2101 84.3208 79.63 82.8195 82.4384C80.6646 86.4479 78.2447 97.9289 84.6387 99.6776C87.4295 100.455 89.9377 97.5227 91.0504 95.3501C93.3113 90.9167 93.5586 86.5362 92.9051 81.6259C92.6754 79.9302 92.3398 78.1816 91.8629 76.433C93.5233 75.6028 95.2896 75.0906 97.1265 75.1082C101.507 75.1612 104.686 78.8528 105.464 83.0213C103.397 83.3745 101.613 84.399 100.483 86.5892C99.1578 89.1504 100.253 92.418 103.503 92.3474C106.788 92.2944 107.477 88.2496 107.318 84.8406C107.795 84.8053 108.254 84.8053 108.678 84.8582C112.034 85.2645 115.143 86.5186 118.393 87.4194C119.612 87.755 120.124 85.8827 118.905 85.5471ZM90.1496 77.4398C91.81 83.1802 92.3398 89.5213 89.3724 94.361C88.6836 95.4914 86.5464 98.9887 84.7977 97.6463C82.9078 96.1979 82.5368 92.8596 82.5722 90.74C82.6252 87.861 83.3493 85.0702 84.9743 82.668C86.2814 80.7427 88.083 78.8528 90.1496 77.4398ZM105.658 85.1232C105.64 86.3419 105.428 87.5607 104.951 88.6911C104.333 90.2102 101.489 91.2699 101.772 88.7618C101.984 86.8188 103.75 85.6354 105.658 85.1232Z" fill="#E5E5E5"/>
<path d="M231.225 87.4186C234.457 86.5355 237.566 85.2637 240.939 84.8575C241.363 84.8045 241.823 84.8045 242.3 84.8398C242.141 88.2488 242.829 92.2937 246.115 92.3466C249.365 92.3996 250.442 89.132 249.135 86.5885C248.005 84.3983 246.221 83.3738 244.154 83.0205C244.931 78.8521 248.111 75.1605 252.491 75.1075C254.31 75.0898 256.094 75.5844 257.755 76.4322C257.295 78.1808 256.942 79.9295 256.713 81.6252C256.077 86.5355 256.324 90.9159 258.567 95.3494C259.68 97.5219 262.188 100.454 264.979 99.6768C271.373 97.9282 268.953 86.4472 266.798 82.4377C265.297 79.6469 262.895 77.2094 260.069 75.5314C260.775 73.4471 261.605 71.4689 262.435 69.7026C266.304 61.5246 273.051 55.3072 282.271 54.3357C286.069 53.9471 290.096 55.0775 293.01 57.568C296.79 60.8004 294.883 66.6998 291.279 69.1727C288.806 70.8683 285.186 71.0626 282.501 69.8439C280.681 69.0314 280.01 67.2827 279.922 65.4104C279.71 60.5178 285.609 59.9349 287.181 64.0151C287.623 65.1808 289.513 64.6686 289.054 63.5028C286.969 58.1156 278.615 57.6917 278.05 64.4037C277.467 71.2393 283.896 73.5531 289.654 72.0164C295.589 70.4268 299.74 61.8955 295.077 56.9322C288.806 50.2555 278.297 51.7216 271.196 56.1373C264.944 60.0232 260.581 67.2651 258.285 74.5952C256.218 73.6591 253.992 73.1292 251.767 73.1645C247.069 73.2175 244.083 76.8385 242.865 81.0423C242.723 81.5192 242.6 82.155 242.494 82.8792C238.449 82.8439 233.751 84.7162 230.713 85.5464C229.494 85.882 230.006 87.7542 231.225 87.4186ZM264.643 82.6496C266.268 85.0518 267.01 87.8602 267.046 90.7216C267.081 92.8412 266.71 96.1972 264.82 97.6279C263.054 98.9703 260.934 95.473 260.245 94.3426C257.278 89.5029 257.808 83.1618 259.468 77.4213C261.535 78.852 263.336 80.742 264.643 82.6496ZM247.846 88.7787C248.128 91.2868 245.285 90.2271 244.666 88.708C244.189 87.5776 243.978 86.3589 243.96 85.1401C245.867 85.6347 247.616 86.8181 247.846 88.7787Z" fill="#E5E5E5"/>
<path d="M81.5403 215.454C78.7857 209.678 74.6008 210.049 72.5348 216.037C72.4466 216.284 72.2523 216.937 72.0404 217.82C70.7691 217.291 69.3388 216.92 67.8202 216.761C67.6083 214.076 67.1316 211.568 66.6901 209.819C65.2775 204.22 60.0861 194.735 52.9701 200.281C50.551 202.171 49.209 205.969 49.5445 209.254C49.4032 209.395 49.2796 209.519 49.156 209.642C46.9841 211.727 44.8122 213.546 41.6161 212.31C39.7444 211.585 37.4489 210.243 37.1487 207.982C36.7073 205.35 37.6785 203.531 40.0446 202.542C40.9451 203.125 41.8457 203.708 42.7462 204.291C42.8875 205.527 44.8475 205.545 44.6886 204.291C44.1589 199.698 39.7444 199.698 36.7779 202.401C32.8932 205.916 35.948 212.204 40.0799 213.793C45.0417 215.719 47.3019 213.687 49.9683 211.197C50.7275 213.405 52.4933 215.047 55.4775 215.1C60.5806 215.189 62.0991 206.693 57.155 205.085C55.1773 204.432 52.9877 206.022 51.2573 207.629C51.169 206.286 51.4692 204.962 52.3167 203.778C56.9784 197.331 62.7171 202.825 64.2534 208.229C65.048 211.038 65.5777 213.829 65.7366 216.69C62.3287 216.725 58.9384 217.785 56.9431 220.187C53.076 224.833 55.5304 232.516 62.311 230.591C66.8667 229.301 68.0321 224.003 67.9262 218.792C69.1269 218.898 70.5042 219.145 71.6343 219.64C70.822 223.42 70.204 228.648 73.0116 227.888C76.8787 226.829 76.4372 220.859 73.7532 218.792C74.1947 217.114 74.7068 215.295 75.7662 213.917C77.6026 211.515 79.1035 214.906 79.8805 216.496C80.4102 217.573 82.0877 216.584 81.5403 215.454ZM51.6634 209.625C52.4403 208.954 53.2879 208.318 54.2767 207.753C56.5899 206.41 59.2739 209.042 57.72 211.303C56.4486 213.581 54.6652 213.493 52.3344 211.091C52.0695 210.614 51.8576 210.119 51.6634 209.625ZM65.7719 218.668C65.7719 218.969 65.7719 219.251 65.7719 219.551C65.7013 222.413 65.5247 226.793 62.4699 228.312C58.6029 230.255 55.1773 226.21 57.5611 222.554C59.3092 219.869 62.6465 218.704 65.7719 218.668ZM72.9586 225.557C72.9763 225.38 72.8703 225.098 72.888 224.462C72.9233 223.225 73.0646 221.989 73.2941 220.77C73.559 221.106 73.7709 221.477 73.8592 221.918C74.0534 222.784 73.7532 224.656 72.9586 225.557Z" fill="#E5E5E5"/>
<path d="M269.842 216.443C270.602 214.854 272.12 211.462 273.957 213.864C275.016 215.26 275.528 217.079 275.97 218.739C273.286 220.806 272.844 226.758 276.711 227.836C279.519 228.613 278.901 223.367 278.089 219.587C279.219 219.093 280.596 218.863 281.797 218.739C281.691 223.95 282.856 229.249 287.412 230.538C294.21 232.464 296.647 224.763 292.78 220.135C290.784 217.733 287.394 216.673 283.986 216.637C284.145 213.776 284.657 210.985 285.47 208.177C287.006 202.79 292.745 197.296 297.406 203.726C298.254 204.892 298.554 206.234 298.466 207.576C296.717 205.969 294.546 204.397 292.568 205.033C287.624 206.64 289.125 215.136 294.245 215.048C297.23 214.995 298.995 213.352 299.755 211.144C302.439 213.635 304.681 215.666 309.643 213.741C313.775 212.151 316.83 205.863 312.945 202.348C309.978 199.646 305.564 199.646 305.034 204.238C304.893 205.492 306.835 205.474 306.977 204.238C307.877 203.655 308.778 203.072 309.678 202.489C312.044 203.479 313.016 205.28 312.574 207.93C312.256 210.19 309.961 211.551 308.107 212.257C304.911 213.493 302.739 211.674 300.567 209.59C300.443 209.466 300.32 209.343 300.178 209.201C300.496 205.916 299.154 202.118 296.753 200.229C289.637 194.682 284.445 204.185 283.033 209.767C282.591 211.515 282.115 214.023 281.903 216.708C280.402 216.885 278.954 217.238 277.682 217.768C277.453 216.885 277.259 216.231 277.188 215.984C275.122 209.996 270.937 209.625 268.183 215.401C267.635 216.585 269.313 217.574 269.842 216.443ZM297.371 211.074C295.04 213.493 293.257 213.564 291.985 211.286C290.431 209.025 293.098 206.393 295.428 207.735C296.4 208.301 297.265 208.954 298.042 209.608C297.865 210.12 297.636 210.614 297.371 211.074ZM292.162 222.555C294.546 226.211 291.12 230.256 287.253 228.313C284.198 226.794 284.022 222.396 283.951 219.552C283.951 219.252 283.951 218.969 283.951 218.669C287.059 218.704 290.414 219.87 292.162 222.555ZM275.846 221.919C275.934 221.477 276.146 221.106 276.411 220.771C276.641 221.989 276.782 223.226 276.817 224.462C276.835 225.098 276.747 225.381 276.747 225.557C275.952 224.657 275.669 222.784 275.846 221.919Z" fill="#E5E5E5"/>
<path d="M71.507 244.969C69.7677 246.709 69.6799 248.783 69.6799 249.204C69.6799 249.714 69.8907 250.189 70.242 250.54L74.9679 255.268H49.2656C49.3886 253.563 48.6156 251.753 47.1574 250.294C45.2952 248.431 41.5707 246.92 38.3382 247.781C37.6706 247.957 37.1611 248.484 36.9854 249.134C36.8273 249.749 36.7395 250.417 36.7395 251.103C36.7395 253.915 38.1274 256.569 39.5153 257.957C40.1301 258.572 40.7802 259.065 41.4829 259.416H29.9757C30.2392 258.625 30.3622 257.799 30.3622 256.955C30.3622 255.286 29.8527 253.686 28.8689 252.351C26.9188 249.661 23.5458 248.501 20.3835 249.415C18.3631 246.832 14.9549 245.777 11.7926 246.814C8.64792 247.834 6.5046 250.681 6.38162 253.968C3.28962 255.092 1.25171 258.01 1.25171 261.332C1.25171 264.654 3.30719 267.571 6.38162 268.696C6.5046 271.983 8.64792 274.83 11.7926 275.85C14.9373 276.869 18.3631 275.832 20.3835 273.248C23.5458 274.145 26.9188 272.985 28.8689 270.313C30.3446 268.274 30.7487 265.603 29.9757 263.248H43.5208C43.6438 263.582 43.7843 263.898 43.9424 264.197L43.8722 264.267C40.8504 262.527 36.9854 263.336 33.9286 266.376C31.9082 268.397 29.8703 272.282 29.8703 276.412C29.8703 277.414 29.9933 278.363 30.2392 279.259C30.4149 279.927 30.9244 280.437 31.592 280.613C36.3003 281.878 41.7464 279.646 44.4695 276.904C47.4561 273.916 48.2994 269.944 46.5777 266.956L47.2453 266.288H58.7349L52.9549 272.071C52.6036 272.422 52.3927 272.897 52.3927 273.424C52.3927 273.828 52.4806 275.902 54.2198 277.642C56.0118 279.435 58.2078 279.47 58.4538 279.47C58.9633 279.47 59.4376 279.259 59.789 278.908L72.4205 266.271H111.861C112.371 266.271 112.845 266.077 113.196 265.726C113.39 265.533 115.164 263.705 115.164 260.769C115.164 257.922 113.53 256.147 113.196 255.813C112.827 255.461 112.353 255.268 111.861 255.268H88.6359L77.0761 243.703C76.7247 243.352 76.2328 243.141 75.7409 243.141C75.4949 243.158 73.2989 243.176 71.507 244.969ZM40.3058 267.185C41.2018 267.15 41.9924 267.466 42.66 268.151C44.2411 269.733 43.7668 272.176 41.7288 274.215C41.5883 274.356 41.4302 274.496 41.2721 274.619C41.6937 272.106 41.3248 269.47 40.3058 267.185ZM36.8625 268.837C37.9693 271.368 37.8463 274.444 36.5638 276.887C35.5624 277.115 34.5962 277.185 33.7177 277.115C33.4367 274.022 35.0529 270.647 36.6341 269.083C36.6868 268.995 36.7746 268.925 36.8625 268.837ZM20.524 269.188C20.0673 268.925 19.5051 268.872 18.9956 269.03C18.4861 269.188 18.0645 269.575 17.8537 270.05C17.0104 271.913 14.9022 272.827 12.9697 272.194C11.0548 271.579 9.8777 269.575 10.2818 267.571C10.3872 267.044 10.2642 266.499 9.94797 266.06C9.63174 265.62 9.1574 265.339 8.61279 265.286C6.59244 265.058 5.06401 263.336 5.06401 261.297C5.06401 259.258 6.59244 257.535 8.61279 257.307C9.13983 257.237 9.63174 256.955 9.94797 256.534C10.2642 256.112 10.3872 255.567 10.2818 255.022C9.8777 253.036 11.0548 251.032 12.9697 250.4C14.9198 249.767 17.0104 250.698 17.8537 252.544C18.082 253.036 18.5037 253.405 18.9956 253.563C19.4875 253.721 20.0673 253.669 20.524 253.405C22.2984 252.403 24.5471 252.895 25.7418 254.548C26.8661 256.094 26.7256 258.362 25.285 259.785L25.2323 259.768L25.1093 259.961C24.4066 260.717 24.4593 261.982 25.2323 262.668C26.6729 264.003 26.9188 266.376 25.7593 267.976C24.5471 269.698 22.2984 270.19 20.524 269.188ZM66.3243 264.39C66.3243 265.076 66.6933 265.691 67.2554 266.025L57.7686 275.516C57.5051 275.41 57.1889 275.252 56.9078 274.953C56.6267 274.655 56.451 274.356 56.3456 274.075L64.6905 265.726C65.2351 265.181 65.3932 264.337 65.1121 263.634C64.8135 262.914 64.1283 262.457 63.3377 262.457H47.3507C47.1223 262.052 46.9115 261.472 46.9115 260.769C46.9115 260.066 47.1398 259.486 47.3507 259.1H79.5883C80.3613 259.1 81.064 258.643 81.3627 257.922C81.4506 257.694 81.5033 257.448 81.5033 257.184C81.5033 256.674 81.31 256.182 80.9411 255.831L73.6678 248.554C73.7732 248.29 73.9314 247.974 74.23 247.675C74.5111 247.394 74.8273 247.218 75.1084 247.113L86.5278 258.537C86.8791 258.889 87.371 259.1 87.8805 259.1H110.948C111.176 259.504 111.387 260.084 111.387 260.787C111.387 261.49 111.158 262.07 110.948 262.474H68.2393C67.1852 262.474 66.3243 263.336 66.3243 264.39ZM42.2032 255.251C41.3072 254.354 40.6396 252.772 40.5693 251.366C41.9572 251.454 43.5559 252.104 44.4519 253.001C44.61 253.159 45.4533 254.038 45.4533 254.899C45.4533 255.251 45.3128 255.549 45.0317 255.831C43.9951 256.868 42.6073 255.655 42.2032 255.251Z" fill="#E5E5E5"/>
<path d="M22.1051 261.314C22.1051 259.82 21.5254 258.397 20.4537 257.342C19.3996 256.288 17.9766 255.69 16.4833 255.69C14.99 255.69 13.567 256.27 12.5129 257.342C11.4588 258.397 10.8615 259.803 10.8615 261.314C10.8615 262.808 11.4412 264.232 12.5129 265.287C13.567 266.341 14.99 266.939 16.4833 266.939C17.9766 266.939 19.3996 266.359 20.4537 265.287C21.5254 264.232 22.1051 262.826 22.1051 261.314ZM16.5009 263.107C16.0265 263.107 15.5697 262.914 15.2359 262.58C14.9021 262.246 14.7089 261.789 14.7089 261.314C14.7089 260.84 14.9021 260.383 15.2359 260.049C15.5697 259.715 16.0265 259.522 16.5009 259.522C16.9752 259.522 17.432 259.715 17.7658 260.049C18.0996 260.383 18.2928 260.84 18.2928 261.314C18.2752 262.299 17.4847 263.107 16.5009 263.107Z" fill="#E5E5E5"/>
<path d="M71.507 244.969C69.7677 246.709 69.6799 248.783 69.6799 249.204C69.6799 249.714 69.8907 250.189 70.242 250.54L74.9679 255.268H49.2656C49.3886 253.563 48.6156 251.753 47.1574 250.294C45.2952 248.431 41.5707 246.92 38.3382 247.781C37.6706 247.957 37.1611 248.484 36.9854 249.134C36.8273 249.749 36.7395 250.417 36.7395 251.103C36.7395 253.915 38.1274 256.569 39.5153 257.957C40.1301 258.572 40.7802 259.065 41.4829 259.416H29.9757C30.2392 258.625 30.3622 257.799 30.3622 256.955C30.3622 255.286 29.8527 253.686 28.8689 252.351C26.9188 249.661 23.5458 248.501 20.3835 249.415C18.3631 246.832 14.9549 245.777 11.7926 246.814C8.64792 247.834 6.5046 250.681 6.38162 253.968C3.28962 255.092 1.25171 258.01 1.25171 261.332C1.25171 264.654 3.30719 267.571 6.38162 268.696C6.5046 271.983 8.64792 274.83 11.7926 275.85C14.9373 276.869 18.3631 275.832 20.3835 273.248C23.5458 274.145 26.9188 272.985 28.8689 270.313C30.3446 268.274 30.7487 265.603 29.9757 263.248H43.5208C43.6438 263.582 43.7843 263.898 43.9424 264.197L43.8722 264.267C40.8504 262.527 36.9854 263.336 33.9286 266.376C31.9082 268.397 29.8703 272.282 29.8703 276.412C29.8703 277.414 29.9933 278.363 30.2392 279.259C30.4149 279.927 30.9244 280.437 31.592 280.613C36.3003 281.878 41.7464 279.646 44.4695 276.904C47.4561 273.916 48.2994 269.944 46.5777 266.956L47.2453 266.288H58.7349L52.9549 272.071C52.6036 272.422 52.3927 272.897 52.3927 273.424C52.3927 273.828 52.4806 275.902 54.2198 277.642C56.0118 279.435 58.2078 279.47 58.4538 279.47C58.9633 279.47 59.4376 279.259 59.789 278.908L72.4205 266.271H111.861C112.371 266.271 112.845 266.077 113.196 265.726C113.39 265.533 115.164 263.705 115.164 260.769C115.164 257.922 113.53 256.147 113.196 255.813C112.827 255.461 112.353 255.268 111.861 255.268H88.6359L77.0761 243.703C76.7247 243.352 76.2328 243.141 75.7409 243.141C75.4949 243.158 73.2989 243.176 71.507 244.969ZM40.3058 267.185C41.2018 267.15 41.9924 267.466 42.66 268.151C44.2411 269.733 43.7668 272.176 41.7288 274.215C41.5883 274.356 41.4302 274.496 41.2721 274.619C41.6937 272.106 41.3248 269.47 40.3058 267.185ZM36.8625 268.837C37.9693 271.368 37.8463 274.444 36.5638 276.887C35.5624 277.115 34.5962 277.185 33.7177 277.115C33.4367 274.022 35.0529 270.647 36.6341 269.083C36.6868 268.995 36.7746 268.925 36.8625 268.837ZM20.524 269.188C20.0673 268.925 19.5051 268.872 18.9956 269.03C18.4861 269.188 18.0645 269.575 17.8537 270.05C17.0104 271.913 14.9022 272.827 12.9697 272.194C11.0548 271.579 9.8777 269.575 10.2818 267.571C10.3872 267.044 10.2642 266.499 9.94797 266.06C9.63174 265.62 9.1574 265.339 8.61279 265.286C6.59244 265.058 5.06401 263.336 5.06401 261.297C5.06401 259.258 6.59244 257.535 8.61279 257.307C9.13983 257.237 9.63174 256.955 9.94797 256.534C10.2642 256.112 10.3872 255.567 10.2818 255.022C9.8777 253.036 11.0548 251.032 12.9697 250.4C14.9198 249.767 17.0104 250.698 17.8537 252.544C18.082 253.036 18.5037 253.405 18.9956 253.563C19.4875 253.721 20.0673 253.669 20.524 253.405C22.2984 252.403 24.5471 252.895 25.7418 254.548C26.8661 256.094 26.7256 258.362 25.285 259.785L25.2323 259.768L25.1093 259.961C24.4066 260.717 24.4593 261.982 25.2323 262.668C26.6729 264.003 26.9188 266.376 25.7593 267.976C24.5471 269.698 22.2984 270.19 20.524 269.188ZM66.3243 264.39C66.3243 265.076 66.6933 265.691 67.2554 266.025L57.7686 275.516C57.5051 275.41 57.1889 275.252 56.9078 274.953C56.6267 274.655 56.451 274.356 56.3456 274.075L64.6905 265.726C65.2351 265.181 65.3932 264.337 65.1121 263.634C64.8135 262.914 64.1283 262.457 63.3377 262.457H47.3507C47.1223 262.052 46.9115 261.472 46.9115 260.769C46.9115 260.066 47.1398 259.486 47.3507 259.1H79.5883C80.3613 259.1 81.064 258.643 81.3627 257.922C81.4506 257.694 81.5033 257.448 81.5033 257.184C81.5033 256.674 81.31 256.182 80.9411 255.831L73.6678 248.554C73.7732 248.29 73.9314 247.974 74.23 247.675C74.5111 247.394 74.8273 247.218 75.1084 247.113L86.5278 258.537C86.8791 258.889 87.371 259.1 87.8805 259.1H110.948C111.176 259.504 111.387 260.084 111.387 260.787C111.387 261.49 111.158 262.07 110.948 262.474H68.2393C67.1852 262.474 66.3243 263.336 66.3243 264.39ZM42.2032 255.251C41.3072 254.354 40.6396 252.772 40.5693 251.366C41.9572 251.454 43.5559 252.104 44.4519 253.001C44.61 253.159 45.4533 254.038 45.4533 254.899C45.4533 255.251 45.3128 255.549 45.0317 255.831C43.9951 256.868 42.6073 255.655 42.2032 255.251Z" stroke="black" stroke-width="1.60734" stroke-miterlimit="10"/>
<path d="M22.1051 261.314C22.1051 259.82 21.5254 258.397 20.4537 257.342C19.3996 256.288 17.9766 255.69 16.4833 255.69C14.99 255.69 13.567 256.27 12.5129 257.342C11.4588 258.397 10.8615 259.803 10.8615 261.314C10.8615 262.808 11.4412 264.232 12.5129 265.287C13.567 266.341 14.99 266.939 16.4833 266.939C17.9766 266.939 19.3996 266.359 20.4537 265.287C21.5254 264.232 22.1051 262.826 22.1051 261.314ZM16.5009 263.107C16.0265 263.107 15.5697 262.914 15.2359 262.58C14.9021 262.246 14.7089 261.789 14.7089 261.314C14.7089 260.84 14.9021 260.383 15.2359 260.049C15.5697 259.715 16.0265 259.522 16.5009 259.522C16.9752 259.522 17.432 259.715 17.7658 260.049C18.0996 260.383 18.2928 260.84 18.2928 261.314C18.2752 262.299 17.4847 263.107 16.5009 263.107Z" stroke="black" stroke-width="1.60734" stroke-miterlimit="10"/>
</svg>
